<svg width="161" height="51" viewBox="0 0 161 51" fill="none" xmlns="http://www.w3.org/2000/svg">
<rect x="0.0830078" width="160.083" height="50.3965" rx="6" fill="#1F1F23"/>
<path d="M45.9561 30.991C45.3366 32.365 45.0381 32.9785 44.2401 34.1935C43.1271 35.8885 41.5551 38.0005 39.6096 38.0185C37.8816 38.0335 37.4376 36.8935 35.0901 36.907C32.7441 36.919 32.2551 38.0395 30.5256 38.023C28.5801 38.005 27.0906 36.0985 25.9761 34.402C22.8606 29.662 22.5351 24.097 24.4566 21.1375C25.8216 19.036 27.9771 17.806 30.0021 17.806C32.0646 17.806 33.3621 18.937 35.0661 18.937C36.7206 18.937 37.7286 17.803 40.1136 17.803C41.9136 17.803 43.8246 18.7855 45.1851 20.4805C40.7271 22.924 41.4501 29.29 45.9561 30.991ZM38.3046 15.91C39.1701 14.797 39.8286 13.228 39.5901 11.623C38.1741 11.7205 36.5196 12.6205 35.5521 13.795C34.6761 14.86 33.9516 16.4395 34.2321 17.9755C35.7771 18.022 37.3761 17.0995 38.3046 15.91Z" fill="url(#paint0_linear_1162_5044)"/>
<path d="M62.6982 12.8701C63.5785 12.8701 64.2516 13.1123 64.7178 13.5967C65.1865 14.0785 65.4209 14.7751 65.4209 15.6865C65.4209 16.598 65.1839 17.3011 64.71 17.7959C64.2386 18.2881 63.568 18.5342 62.6982 18.5342H60.8662V12.8701H62.6982ZM62.6982 17.8545C63.3232 17.8545 63.7998 17.6709 64.1279 17.3037C64.4561 16.9339 64.6201 16.3949 64.6201 15.6865C64.6201 14.9886 64.4574 14.4587 64.1318 14.0967C63.8063 13.7321 63.3285 13.5498 62.6982 13.5498H61.6357V17.8545H62.6982ZM68.2286 14.3428C68.8458 14.3428 69.3249 14.5303 69.6661 14.9053C70.0072 15.2777 70.1778 15.7998 70.1778 16.4717C70.1778 17.1436 70.0072 17.6657 69.6661 18.0381C69.3249 18.4105 68.8458 18.5967 68.2286 18.5967C67.6088 18.5967 67.1283 18.4105 66.7872 18.0381C66.446 17.6657 66.2755 17.1436 66.2755 16.4717C66.2755 15.7998 66.446 15.2777 66.7872 14.9053C67.1283 14.5303 67.6088 14.3428 68.2286 14.3428ZM68.2286 15.0068C67.8432 15.0068 67.5489 15.1318 67.3458 15.3818C67.1453 15.6318 67.045 15.9951 67.045 16.4717C67.045 16.9456 67.1453 17.3076 67.3458 17.5576C67.5489 17.8076 67.8432 17.9326 68.2286 17.9326C68.6114 17.9326 68.9044 17.8076 69.1075 17.5576C69.3106 17.3076 69.4122 16.9456 69.4122 16.4717C69.4122 15.9977 69.3106 15.6357 69.1075 15.3857C68.9044 15.1331 68.6114 15.0068 68.2286 15.0068ZM74.1183 16.5889C74.0818 16.4561 74.0259 16.2217 73.9503 15.8857C73.9347 15.8258 73.9178 15.7581 73.8996 15.6826C73.8839 15.6045 73.8631 15.5199 73.8371 15.4287C73.8006 15.5511 73.7576 15.7243 73.7081 15.9482C73.6378 16.2529 73.5845 16.4665 73.548 16.5889L72.9972 18.5342H71.9581L70.798 14.4209H71.5402L72.1027 16.4639L72.4777 17.8076C72.66 17.2113 72.7928 16.7633 72.8761 16.4639L73.4777 14.4209H74.1886L74.7902 16.4639C74.8761 16.7633 75.0089 17.2113 75.1886 17.8076L75.5636 16.4639L76.1261 14.4209H76.8683L75.7081 18.5342H74.6691L74.1183 16.5889ZM78.4924 14.999C78.6903 14.7803 78.9078 14.6175 79.1447 14.5107C79.3817 14.404 79.6473 14.3506 79.9416 14.3506C80.3791 14.3506 80.7138 14.4769 80.9455 14.7295C81.1773 14.9821 81.2932 15.3493 81.2932 15.8311V18.5342H80.5393V15.8857C80.5393 15.5811 80.4768 15.3597 80.3518 15.2217C80.2268 15.0837 80.0263 15.0146 79.7502 15.0146C79.5054 15.0146 79.2763 15.0693 79.0627 15.1787C78.8492 15.2881 78.6773 15.4391 78.5471 15.6318V18.5342H77.7971V14.4209H78.4065L78.4924 14.999ZM82.6516 12.5342H83.4016V18.5342H82.6516V12.5342ZM86.4906 14.3428C87.1078 14.3428 87.5869 14.5303 87.9281 14.9053C88.2692 15.2777 88.4398 15.7998 88.4398 16.4717C88.4398 17.1436 88.2692 17.6657 87.9281 18.0381C87.5869 18.4105 87.1078 18.5967 86.4906 18.5967C85.8708 18.5967 85.3903 18.4105 85.0492 18.0381C84.708 17.6657 84.5375 17.1436 84.5375 16.4717C84.5375 15.7998 84.708 15.2777 85.0492 14.9053C85.3903 14.5303 85.8708 14.3428 86.4906 14.3428ZM86.4906 15.0068C86.1052 15.0068 85.8109 15.1318 85.6078 15.3818C85.4073 15.6318 85.307 15.9951 85.307 16.4717C85.307 16.9456 85.4073 17.3076 85.6078 17.5576C85.8109 17.8076 86.1052 17.9326 86.4906 17.9326C86.8734 17.9326 87.1664 17.8076 87.3695 17.5576C87.5726 17.3076 87.6742 16.9456 87.6742 16.4717C87.6742 15.9977 87.5726 15.6357 87.3695 15.3857C87.1664 15.1331 86.8734 15.0068 86.4906 15.0068ZM90.9545 14.3584C91.4675 14.3584 91.8621 14.4938 92.1381 14.7646C92.4168 15.0329 92.5561 15.417 92.5561 15.917V18.5342H91.978L91.8686 18.0537C91.4675 18.4261 91.017 18.6123 90.517 18.6123C90.1056 18.6123 89.7787 18.5016 89.5366 18.2803C89.2944 18.0589 89.1733 17.762 89.1733 17.3896C89.1733 16.9574 89.3504 16.6201 89.7045 16.3779C90.0587 16.1357 90.5561 16.0146 91.1967 16.0146H91.8022V15.9014C91.7813 15.3154 91.4806 15.0225 90.8998 15.0225C90.7228 15.0225 90.5235 15.0498 90.3022 15.1045C90.0808 15.1566 89.8582 15.2282 89.6342 15.3193L89.4272 14.71C89.6668 14.598 89.9194 14.512 90.185 14.4521C90.4532 14.3896 90.7097 14.3584 90.9545 14.3584ZM91.2436 16.5889C90.8269 16.5889 90.5027 16.6579 90.2709 16.7959C90.0392 16.9313 89.9233 17.1214 89.9233 17.3662C89.9233 17.5537 89.9871 17.6982 90.1147 17.7998C90.2423 17.8988 90.4207 17.9482 90.6498 17.9482C90.8686 17.9482 91.0821 17.9027 91.2905 17.8115C91.4988 17.7178 91.6694 17.5928 91.8022 17.4365V16.5889H91.2436ZM96.6138 18.0146C96.4367 18.2178 96.2479 18.3662 96.0474 18.46C95.8495 18.5511 95.6307 18.5967 95.3911 18.5967C94.8156 18.5967 94.3703 18.4183 94.0552 18.0615C93.7401 17.7048 93.5825 17.1982 93.5825 16.542C93.5825 15.8597 93.7687 15.3245 94.1411 14.9365C94.5161 14.5459 95.0343 14.3506 95.6958 14.3506C95.9354 14.3506 96.2258 14.3883 96.5669 14.4639V12.5342H97.3169V18.5264H96.7192L96.6138 18.0146ZM95.438 17.9326C95.701 17.9326 95.9302 17.8623 96.1255 17.7217C96.3234 17.5811 96.4705 17.3831 96.5669 17.1279V15.1357C96.3534 15.0837 96.1932 15.0511 96.0864 15.0381C95.9797 15.0225 95.8521 15.0146 95.7036 15.0146C95.2765 15.0146 94.9445 15.1501 94.7075 15.4209C94.4705 15.6891 94.3521 16.0628 94.3521 16.542C94.3521 16.9847 94.4458 17.3271 94.6333 17.5693C94.8234 17.8115 95.0916 17.9326 95.438 17.9326ZM102.44 14.3428C103.057 14.3428 103.536 14.5303 103.878 14.9053C104.219 15.2777 104.389 15.7998 104.389 16.4717C104.389 17.1436 104.219 17.6657 103.878 18.0381C103.536 18.4105 103.057 18.5967 102.44 18.5967C101.82 18.5967 101.34 18.4105 100.999 18.0381C100.658 17.6657 100.487 17.1436 100.487 16.4717C100.487 15.7998 100.658 15.2777 100.999 14.9053C101.34 14.5303 101.82 14.3428 102.44 14.3428ZM102.44 15.0068C102.055 15.0068 101.76 15.1318 101.557 15.3818C101.357 15.6318 101.256 15.9951 101.256 16.4717C101.256 16.9456 101.357 17.3076 101.557 17.5576C101.76 17.8076 102.055 17.9326 102.44 17.9326C102.823 17.9326 103.116 17.8076 103.319 17.5576C103.522 17.3076 103.624 16.9456 103.624 16.4717C103.624 15.9977 103.522 15.6357 103.319 15.3857C103.116 15.1331 102.823 15.0068 102.44 15.0068ZM106.217 14.999C106.414 14.7803 106.632 14.6175 106.869 14.5107C107.106 14.404 107.371 14.3506 107.666 14.3506C108.103 14.3506 108.438 14.4769 108.67 14.7295C108.901 14.9821 109.017 15.3493 109.017 15.8311V18.5342H108.263V15.8857C108.263 15.5811 108.201 15.3597 108.076 15.2217C107.951 15.0837 107.75 15.0146 107.474 15.0146C107.23 15.0146 107 15.0693 106.787 15.1787C106.573 15.2881 106.401 15.4391 106.271 15.6318V18.5342H105.521V14.4209H106.131L106.217 14.999ZM114.75 18.3975C114.44 18.5199 114.152 18.5811 113.887 18.5811C113.491 18.5811 113.189 18.4795 112.98 18.2764C112.775 18.0706 112.672 17.7699 112.672 17.374V15.0693H111.953V14.4209H112.711L112.871 13.2451H113.426V14.4209H114.68V15.0693H113.426V17.2529C113.426 17.4873 113.471 17.6553 113.562 17.7568C113.656 17.8584 113.81 17.9092 114.023 17.9092C114.211 17.9092 114.406 17.8753 114.609 17.8076L114.75 18.3975ZM116.476 14.9482C116.856 14.5498 117.321 14.3506 117.87 14.3506C118.308 14.3506 118.642 14.4769 118.874 14.7295C119.106 14.9821 119.222 15.3493 119.222 15.8311V18.5342H118.468V15.8857C118.468 15.5811 118.405 15.3597 118.28 15.2217C118.155 15.0837 117.955 15.0146 117.679 15.0146C117.434 15.0146 117.205 15.0693 116.991 15.1787C116.778 15.2881 116.606 15.4391 116.476 15.6318V18.5342H115.726V12.5029H116.476V14.9482ZM121.029 16.6123C121.05 17.0394 121.165 17.3662 121.373 17.5928C121.581 17.8193 121.874 17.9326 122.252 17.9326C122.46 17.9326 122.661 17.9105 122.854 17.8662C123.049 17.8219 123.27 17.7464 123.518 17.6396L123.756 18.1982C123.472 18.3363 123.206 18.4378 122.959 18.5029C122.712 18.5654 122.463 18.5967 122.213 18.5967C121.593 18.5967 121.113 18.4105 120.771 18.0381C120.43 17.6657 120.26 17.1436 120.26 16.4717C120.26 15.7998 120.428 15.279 120.764 14.9092C121.1 14.5368 121.575 14.3506 122.189 14.3506C122.765 14.3506 123.193 14.5238 123.475 14.8701C123.758 15.2165 123.9 15.7412 123.9 16.4443V16.6123H121.029ZM123.123 15.9834C123.102 15.6631 123.011 15.4222 122.85 15.2607C122.691 15.0967 122.471 15.0146 122.189 15.0146C121.564 15.0146 121.191 15.3376 121.068 15.9834H123.123Z" fill="white"/>
<path d="M63.5615 32.4248L62.6396 35.3389H60.2334L63.9131 23.9951H67.1475L70.9209 35.3389H68.5537L67.5928 32.4248H63.5615ZM65.499 26.0889L64.1084 30.6201H67.0381L65.6084 26.0889H65.499ZM77.1144 26.8467C78.2759 26.8467 79.1795 27.2061 79.8253 27.9248C80.4712 28.6436 80.7941 29.6644 80.7941 30.9873C80.7941 31.9144 80.6092 32.7139 80.2394 33.3857C79.8696 34.0576 79.3462 34.5732 78.6691 34.9326C77.992 35.2868 77.1899 35.4639 76.2628 35.4639C75.8253 35.4639 75.3566 35.4066 74.8566 35.292V39.0029H72.4581V26.9561H74.2941L74.6613 27.9482C75.0154 27.5628 75.3852 27.2842 75.7706 27.1123C76.1613 26.9352 76.6092 26.8467 77.1144 26.8467ZM76.1222 33.8311C76.8462 33.8311 77.4009 33.5967 77.7863 33.1279C78.1769 32.6592 78.3722 31.9717 78.3722 31.0654C78.3722 29.3779 77.7863 28.5368 76.6144 28.542C76.1873 28.542 75.8201 28.6566 75.5128 28.8857C75.2108 29.1149 74.992 29.4378 74.8566 29.8545V33.6592C75.1639 33.7321 75.3956 33.779 75.5519 33.7998C75.7081 33.8206 75.8983 33.8311 76.1222 33.8311ZM87.4016 26.8467C88.5631 26.8467 89.4668 27.2061 90.1126 27.9248C90.7584 28.6436 91.0813 29.6644 91.0813 30.9873C91.0813 31.9144 90.8964 32.7139 90.5266 33.3857C90.1569 34.0576 89.6334 34.5732 88.9563 34.9326C88.2793 35.2868 87.4772 35.4639 86.5501 35.4639C86.1126 35.4639 85.6438 35.4066 85.1438 35.292V39.0029H82.7454V26.9561H84.5813L84.9485 27.9482C85.3027 27.5628 85.6725 27.2842 86.0579 27.1123C86.4485 26.9352 86.8964 26.8467 87.4016 26.8467ZM86.4095 33.8311C87.1334 33.8311 87.6881 33.5967 88.0735 33.1279C88.4641 32.6592 88.6595 31.9717 88.6595 31.0654C88.6595 29.3779 88.0735 28.5368 86.9016 28.542C86.4746 28.542 86.1074 28.6566 85.8001 28.8857C85.498 29.1149 85.2793 29.4378 85.1438 29.8545V33.6592C85.4511 33.7321 85.6829 33.779 85.8391 33.7998C85.9954 33.8206 86.1855 33.8311 86.4095 33.8311ZM100.609 23.8545C101.546 23.8493 102.601 24.055 103.773 24.4717L103.281 26.3467C102.192 25.9613 101.307 25.7686 100.625 25.7686C100.073 25.7686 99.6376 25.8779 99.3199 26.0967C99.0022 26.3154 98.8433 26.6123 98.8433 26.9873C98.8433 27.3936 98.9892 27.7165 99.2808 27.9561C99.5777 28.1956 100.117 28.417 100.898 28.6201C102.049 28.917 102.867 29.3285 103.351 29.8545C103.836 30.3753 104.078 31.0941 104.078 32.0107C104.078 33.1201 103.703 33.9717 102.953 34.5654C102.208 35.154 101.143 35.4482 99.7574 35.4482C98.6272 35.4482 97.4163 35.193 96.1246 34.6826L96.7027 32.8623C97.4163 33.1175 97.9996 33.2972 98.4527 33.4014C98.9058 33.5003 99.3355 33.5498 99.7418 33.5498C100.33 33.5498 100.783 33.4248 101.101 33.1748C101.424 32.9196 101.586 32.568 101.586 32.1201C101.586 31.8337 101.518 31.5941 101.382 31.4014C101.247 31.2087 101.018 31.0368 100.695 30.8857C100.372 30.7295 99.9058 30.5758 99.2965 30.4248C98.2808 30.18 97.5386 29.7998 97.0699 29.2842C96.6011 28.7686 96.3668 28.0889 96.3668 27.2451C96.3668 26.167 96.7366 25.3337 97.4761 24.7451C98.2209 24.1514 99.2652 23.8545 100.609 23.8545ZM111.193 35.0186C110.469 35.3154 109.776 35.4639 109.115 35.4639C107.271 35.4639 106.349 34.5837 106.349 32.8232V28.6357H104.967V26.9561H106.506L106.967 24.5576H108.732V26.9561H111.021V28.6357H108.732V32.4873C108.732 32.9144 108.81 33.2191 108.967 33.4014C109.128 33.5837 109.401 33.6748 109.787 33.6748C110.115 33.6748 110.467 33.6097 110.842 33.4795L111.193 35.0186ZM116.535 26.7607C117.915 26.7607 118.973 27.1383 119.707 27.8936C120.441 28.6436 120.808 29.7217 120.808 31.1279C120.808 32.5342 120.441 33.6175 119.707 34.3779C118.973 35.1383 117.915 35.5186 116.535 35.5186C115.17 35.5186 114.118 35.141 113.379 34.3857C112.639 33.6253 112.269 32.5394 112.269 31.1279C112.269 29.7217 112.637 28.6436 113.371 27.8936C114.105 27.1383 115.16 26.7607 116.535 26.7607ZM116.535 28.5576C115.301 28.5524 114.683 29.4092 114.683 31.1279C114.683 32.8467 115.301 33.7061 116.535 33.7061C117.775 33.7061 118.394 32.8467 118.394 31.1279C118.394 29.4092 117.775 28.5524 116.535 28.5576ZM124.9 28.1201C125.426 27.2555 126.163 26.8232 127.111 26.8232C127.314 26.8232 127.486 26.8363 127.627 26.8623C127.773 26.8831 127.958 26.9248 128.182 26.9873L127.908 29.0811C127.46 28.9196 127.064 28.8415 126.721 28.8467C126.346 28.8467 126.028 28.9144 125.768 29.0498C125.507 29.18 125.288 29.3883 125.111 29.6748V35.3389H122.705V26.9561H124.611L124.9 28.1201ZM131.211 31.5967C131.336 33.0238 132.07 33.7373 133.414 33.7373C133.831 33.7373 134.25 33.6904 134.672 33.5967C135.094 33.4977 135.56 33.3415 136.07 33.1279L136.649 34.6201C135.378 35.2087 134.203 35.5003 133.125 35.4951C131.802 35.4951 130.763 35.1097 130.008 34.3389C129.253 33.568 128.875 32.4977 128.875 31.1279C128.875 29.7633 129.245 28.7008 129.985 27.9404C130.724 27.1748 131.761 26.792 133.094 26.792C135.599 26.792 136.852 28.2113 136.852 31.0498V31.5967H131.211ZM134.649 30.2061C134.581 29.0394 134.068 28.4561 133.11 28.4561C132.578 28.4561 132.159 28.6019 131.852 28.8936C131.55 29.18 131.352 29.6175 131.258 30.2061H134.649Z" fill="white"/>
<defs>
<linearGradient id="paint0_linear_1162_5044" x1="23.2637" y1="11.623" x2="45.9559" y2="41.3474" gradientUnits="userSpaceOnUse">
<stop stop-color="#E5E5E5"/>
<stop offset="1" stop-color="white"/>
</linearGradient>
</defs>
</svg>
