<svg width="87" height="87" viewBox="0 0 87 87" fill="none" xmlns="http://www.w3.org/2000/svg">
<path d="M14.5 42.5057C14.5 41.1293 15.5228 39.9918 16.8498 39.8117L17.2188 39.7869H71.5938C73.0953 39.7869 74.3125 41.0042 74.3125 42.5057C74.3125 43.8821 73.2897 45.0196 71.9627 45.1996L71.5938 45.2244H17.2188C15.7172 45.2244 14.5 44.0072 14.5 42.5057Z" fill="#A2FF00"/>
<path d="M47.7449 22.5938C46.6809 21.5344 46.6772 19.8129 47.7367 18.7489C48.6998 17.7816 50.21 17.6906 51.276 18.4781L51.5815 18.7406L73.5128 40.5776C74.483 41.5437 74.5712 43.0593 73.7775 44.1253L73.5129 44.4306L51.5817 66.2713C50.5178 67.3308 48.7964 67.3272 47.7368 66.2633C46.7736 65.2961 46.689 63.7855 47.4809 62.7228L47.7448 62.4184L67.7404 42.5031L47.7449 22.5938Z" fill="#A2FF00"/>
</svg>
