<svg width="30" height="30" viewBox="0 0 30 30" fill="none" xmlns="http://www.w3.org/2000/svg">
<path fill-rule="evenodd" clip-rule="evenodd" d="M17.1211 15L23.5606 8.56051C24.1471 7.97401 24.1471 7.02601 23.5606 6.43951C22.9741 5.85301 22.0261 5.85301 21.4396 6.43951L15.0001 12.879L8.56063 6.43951C7.97413 5.85301 7.02613 5.85301 6.43963 6.43951C5.85313 7.02601 5.85313 7.97401 6.43963 8.56051L12.8791 15L6.43963 21.4395C5.85313 22.026 5.85313 22.974 6.43963 23.5605C6.73213 23.853 7.11613 24 7.50013 24C7.88413 24 8.26813 23.853 8.56063 23.5605L15.0001 17.121L21.4396 23.5605C21.7321 23.853 22.1161 24 22.5001 24C22.8841 24 23.2681 23.853 23.5606 23.5605C24.1471 22.974 24.1471 22.026 23.5606 21.4395L17.1211 15Z" fill="#7C7D89"/>
</svg>
