<svg width="1981" height="491" viewBox="0 0 1981 491" fill="none" xmlns="http://www.w3.org/2000/svg">
<path d="M1683.4 199.567L1847.58 0.0395508H1970.48L1742.24 271.485L1562.05 490.96H1439L1683.4 199.567ZM1684.82 282.631L1670.98 266.069L1444.7 0.0395508H1567.58L1728.1 193.186L1745.18 213.096L1981 491H1858.18L1684.82 282.631Z" fill="url(#paint0_linear_1176_4230)" fill-opacity="0.6"/>
<path d="M1782.07 0H1638.32L1708.64 91.5229L1782.07 0Z" fill="url(#paint1_linear_1176_4230)" fill-opacity="0.6"/>
<path d="M1782.07 490.87H1638.32L1708.64 399.347L1782.07 490.87Z" fill="url(#paint2_linear_1176_4230)" fill-opacity="0.6"/>
<path d="M244.404 199.567L408.576 0.0395508H531.484L303.242 271.485L123.046 490.96H0L244.404 199.567ZM245.815 282.631L231.977 266.069L5.70118 0.0395508H128.581L289.1 193.186L306.176 213.096L542 491H419.176L245.815 282.631Z" fill="url(#paint3_linear_1176_4230)" fill-opacity="0.6"/>
<path d="M343.067 0H199.315L269.642 91.5229L343.067 0Z" fill="url(#paint4_linear_1176_4230)" fill-opacity="0.6"/>
<path d="M343.067 490.87H199.315L269.642 399.347L343.067 490.87Z" fill="url(#paint5_linear_1176_4230)" fill-opacity="0.6"/>
<defs>
<linearGradient id="paint0_linear_1176_4230" x1="1710" y1="0.0395508" x2="1703.78" y2="573.371" gradientUnits="userSpaceOnUse">
<stop stop-color="#B9F5EB"/>
<stop offset="1" stop-color="#B9F5EB" stop-opacity="0"/>
</linearGradient>
<linearGradient id="paint1_linear_1176_4230" x1="1710.19" y1="0" x2="1709.38" y2="106.885" gradientUnits="userSpaceOnUse">
<stop stop-color="#B9F5EB"/>
<stop offset="1" stop-color="#B9F5EB" stop-opacity="0"/>
</linearGradient>
<linearGradient id="paint2_linear_1176_4230" x1="1710.19" y1="399.347" x2="1709.38" y2="506.231" gradientUnits="userSpaceOnUse">
<stop stop-color="#B9F5EB"/>
<stop offset="1" stop-color="#B9F5EB" stop-opacity="0"/>
</linearGradient>
<linearGradient id="paint3_linear_1176_4230" x1="271" y1="0.0395508" x2="264.779" y2="573.371" gradientUnits="userSpaceOnUse">
<stop stop-color="#B9F5EB"/>
<stop offset="1" stop-color="#B9F5EB" stop-opacity="0"/>
</linearGradient>
<linearGradient id="paint4_linear_1176_4230" x1="271.191" y1="0" x2="270.376" y2="106.885" gradientUnits="userSpaceOnUse">
<stop stop-color="#B9F5EB"/>
<stop offset="1" stop-color="#B9F5EB" stop-opacity="0"/>
</linearGradient>
<linearGradient id="paint5_linear_1176_4230" x1="271.191" y1="399.347" x2="270.376" y2="506.231" gradientUnits="userSpaceOnUse">
<stop stop-color="#B9F5EB"/>
<stop offset="1" stop-color="#B9F5EB" stop-opacity="0"/>
</linearGradient>
</defs>
</svg>
