<svg width="1189" height="240" viewBox="0 0 1189 240" fill="none" xmlns="http://www.w3.org/2000/svg">
<g clip-path="url(#clip0_197_484)">
<path d="M0.906982 48.2793H54.312V373.747H0.906982V48.2793ZM27.7731 323.156H124.088C142.784 323.156 156.694 319.239 165.82 311.406C174.945 303.572 179.53 292.64 179.574 278.61V277.931C179.574 268.226 177.781 259.957 174.195 253.125C170.537 246.194 164.704 240.65 157.589 237.34C150.103 233.685 140.83 231.857 129.767 231.857H27.7731V181.67H129.65C144.481 181.67 155.774 178.089 163.53 170.926C171.286 163.762 175.177 153.392 175.203 139.814C175.203 126.375 171.089 116.187 162.862 109.25C154.636 102.313 142.518 98.8314 126.509 98.8052H27.7731V48.2793H131.665C152.76 48.2793 170.601 51.8261 185.188 58.9198C199.774 66.0134 210.767 76.123 218.165 89.2484C225.589 102.365 229.301 118.102 229.301 136.458C229.461 147.732 227.044 158.894 222.235 169.098C217.467 178.916 210.259 187.353 201.297 193.603C192.102 200.175 180.847 204.653 167.534 207.038C181.284 208.979 193.1 213.492 202.985 220.577C212.734 227.529 220.536 236.855 225.65 247.668C231.008 259.2 233.692 271.788 233.502 284.498V285.164C233.502 303.224 229.576 318.93 221.724 332.282C213.794 345.712 201.985 356.441 187.844 363.068C173.109 370.24 155.661 373.821 135.499 373.813H27.7731V323.156Z" fill="#1D1D1D"/>
<path d="M266.074 48.2793H319.728V373.747H266.074V48.2793ZM291.2 322.451H480.126V373.721H291.2V322.451Z" fill="#1D1D1D"/>
<path d="M548.441 362.219C530.949 352.46 516.681 337.835 507.376 320.127C497.657 302.005 492.798 281.02 492.798 257.172V164.88C492.798 141.014 497.657 120.012 507.376 101.873C516.681 84.1645 530.949 69.5395 548.441 59.7811C566.098 49.8587 586.517 44.8975 609.697 44.8975C632.877 44.8975 653.296 49.8587 670.954 59.7811C688.446 69.5395 702.714 84.1645 712.019 101.873C721.729 119.994 726.584 140.997 726.584 164.88V257.172C726.584 281.046 721.724 302.049 712.006 320.179C702.701 337.888 688.433 352.513 670.941 362.271C653.283 372.193 632.864 377.155 609.684 377.155C586.504 377.155 566.09 372.176 548.441 362.219ZM642.125 315.988C651.452 310.642 658.984 302.66 663.77 293.049C668.865 283.127 671.408 271.672 671.399 258.686V163.379C671.399 150.401 668.856 138.947 663.77 129.016C658.984 119.405 651.452 111.423 642.125 106.077C632.764 100.62 621.955 97.9127 609.697 97.9562C597.44 97.9998 586.635 100.685 577.283 106.012C567.949 111.353 560.412 119.336 555.625 128.951C550.539 138.891 547.996 150.345 547.996 163.314V258.621C547.996 271.598 550.539 283.053 555.625 292.984C560.412 302.598 567.949 310.581 577.283 315.923C586.626 321.302 597.431 323.987 609.697 323.978C621.964 323.97 632.773 321.306 642.125 315.988V315.988Z" fill="#1D1D1D"/>
<path d="M1043.91 366.841C1029.61 360.291 1017.44 349.858 1008.8 336.734C1000.08 323.53 994.879 307.75 993.204 289.394H1048.17C1049.03 296.55 1051.57 303.403 1055.59 309.395C1059.26 314.644 1064.3 318.789 1070.16 321.38C1076.78 324.19 1083.92 325.56 1091.1 325.402C1104.56 325.402 1114.96 321.785 1122.29 314.552C1129.61 307.319 1133.28 297.057 1133.29 283.767V275.032C1133.29 260.706 1130.04 249.626 1123.53 241.792C1117.02 233.959 1107.71 230.042 1095.59 230.042H1070.16V178.994H1095.53C1105.85 178.994 1113.82 175.595 1119.42 168.797C1125.02 162 1127.83 152.486 1127.84 140.257V132.424C1127.84 120.935 1124.78 112.092 1118.67 105.894C1112.57 99.6972 1104.01 96.5943 1093 96.5856C1086.72 96.4771 1080.51 97.9357 1074.94 100.829C1069.39 103.892 1064.72 108.324 1061.37 113.702C1057.35 120.178 1054.6 127.361 1053.28 134.865H998.595C1000.98 116.056 1006.47 99.8626 1015.08 86.2846C1023.16 73.1915 1034.63 62.5187 1048.28 55.3946C1061.82 48.3879 1077.12 44.8803 1094.18 44.8716C1122.6 44.8716 1144.63 52.2699 1160.26 67.0664C1175.9 81.863 1183.71 102.683 1183.7 129.525V137.137C1183.7 152.804 1179.59 166.46 1171.36 178.106C1163.13 189.752 1151.47 198.334 1136.37 203.852C1153.12 207.586 1166.09 216.055 1175.29 229.259C1184.48 242.462 1189.08 259.287 1189.09 279.732V287.344C1189.09 306.301 1185.39 322.495 1177.98 335.925C1170.66 349.282 1159.31 360.009 1145.55 366.593C1131.34 373.617 1114.29 377.124 1094.4 377.116C1075.4 377.107 1058.57 373.682 1043.91 366.841Z" fill="#1D1D1D"/>
<path d="M850.709 180.561L928.337 48.2793H986.453L878.53 228.24L793.326 373.747H735.144L850.709 180.561ZM851.376 235.63L844.833 224.65L737.84 48.2793H795.943L871.843 176.331L879.917 189.53L991.425 373.774H933.349L851.376 235.63Z" fill="#1D1D1D"/>
<path d="M897.383 48.2529H829.361L862.639 108.975L897.383 48.2529Z" fill="#1D1D1D"/>
</g>
<defs>
<clipPath id="clip0_197_484">
<rect width="1188.09" height="240" fill="white" transform="translate(0.905029)"/>
</clipPath>
</defs>
</svg>
