<svg width="161" height="50" viewBox="0 0 161 50" fill="none" xmlns="http://www.w3.org/2000/svg">
<rect width="160.083" height="49.4083" rx="6" fill="#1F1F23"/>
<path d="M32.3669 29.2629C35.8797 27.334 38.5429 25.8643 38.7725 25.7501C39.5068 25.3595 40.2651 24.326 38.7725 23.5231C38.2905 23.2707 35.6959 21.8466 32.3669 20.0103L27.752 24.6708L32.3669 29.2629Z" fill="#FFD900"/>
<path d="M27.752 24.6709L13.0576 39.4806C13.4025 39.5263 13.7919 39.4349 14.251 39.1826C15.2149 38.6549 25.4326 33.075 32.3669 29.2641L27.752 24.6709Z" fill="#F43249"/>
<path d="M27.7524 24.6708L32.3673 20.0331C32.3673 20.0331 15.2849 10.7108 14.2514 10.1603C13.862 9.92961 13.4257 9.86109 13.0352 9.92961L27.7524 24.6708Z" fill="#00EE76"/>
<path d="M27.7519 24.6714L13.0347 9.93018C12.4374 10.0684 11.9326 10.596 11.9326 11.6752C11.9326 13.3974 11.9326 36.312 11.9326 37.7361C11.9326 38.724 12.3232 39.4354 13.0575 39.504L27.7519 24.6714Z" fill="#00D3FF"/>
<path d="M56.2316 12.18C56.2316 12.98 55.9942 13.6173 55.5196 14.092C54.9862 14.6573 54.2849 14.94 53.4156 14.94C52.5836 14.94 51.8796 14.652 51.3036 14.076C50.7276 13.5 50.4396 12.7907 50.4396 11.948C50.4396 11.1053 50.7276 10.396 51.3036 9.82001C51.8796 9.24401 52.5836 8.95601 53.4156 8.95601C53.8369 8.95601 54.2342 9.03068 54.6076 9.18001C54.9809 9.32934 55.2876 9.54001 55.5276 9.81201L54.9996 10.34C54.8236 10.1267 54.5942 9.96134 54.3116 9.84401C54.0342 9.72134 53.7356 9.66001 53.4156 9.66001C52.7916 9.66001 52.2636 9.87601 51.8316 10.308C51.4049 10.7453 51.1916 11.292 51.1916 11.948C51.1916 12.604 51.4049 13.1507 51.8316 13.588C52.2636 14.02 52.7916 14.236 53.4156 14.236C53.9862 14.236 54.4609 14.076 54.8396 13.756C55.2182 13.436 55.4369 12.996 55.4956 12.436H53.4156V11.748H56.1916C56.2182 11.8973 56.2316 12.0413 56.2316 12.18ZM60.5978 9.08401V9.78801H57.9898V11.604H60.3418V12.292H57.9898V14.108H60.5978V14.812H57.2538V9.08401H60.5978ZM63.6697 9.78801V14.812H62.9337V9.78801H61.3337V9.08401H65.2697V9.78801H63.6697ZM68.7879 14.812H68.0519V9.08401H68.7879V14.812ZM70.8065 14.812H70.0705V9.08401H70.9665L73.7505 13.54H73.7825L73.7505 12.436V9.08401H74.4865V14.812H73.7185L70.8065 10.14H70.7745L70.8065 11.244V14.812ZM83.1064 11.948C83.1064 12.796 82.8237 13.5053 82.2584 14.076C81.6877 14.652 80.989 14.94 80.1624 14.94C79.3304 14.94 78.6317 14.652 78.0664 14.076C77.501 13.5053 77.2184 12.796 77.2184 11.948C77.2184 11.1 77.501 10.3907 78.0664 9.82001C78.6317 9.24401 79.3304 8.95601 80.1624 8.95601C80.9944 8.95601 81.693 9.24668 82.2584 9.82801C82.8237 10.3987 83.1064 11.1053 83.1064 11.948ZM77.9704 11.948C77.9704 12.6093 78.1784 13.156 78.5944 13.588C79.0157 14.02 79.5384 14.236 80.1624 14.236C80.7864 14.236 81.3064 14.02 81.7224 13.588C82.1437 13.1613 82.3544 12.6147 82.3544 11.948C82.3544 11.2813 82.1437 10.7347 81.7224 10.308C81.3064 9.87601 80.7864 9.66001 80.1624 9.66001C79.5384 9.66001 79.0157 9.87601 78.5944 10.308C78.1784 10.74 77.9704 11.2867 77.9704 11.948ZM84.8389 14.812H84.1029V9.08401H84.9989L87.7829 13.54H87.8149L87.7829 12.436V9.08401H88.5189V14.812H87.7509L84.8389 10.14H84.8069L84.8389 11.244V14.812Z" fill="white"/>
<path d="M80.6584 24.5029C78.018 24.5029 75.8368 26.546 75.8368 29.3474C75.8368 32.1259 77.9952 34.1918 80.6584 34.1918C83.3216 34.1918 85.48 32.1488 85.48 29.3474C85.48 26.546 83.3216 24.5029 80.6584 24.5029ZM80.6584 32.2641C79.2114 32.2641 77.9495 31.0467 77.9495 29.3257C77.9495 27.5807 79.2126 26.3873 80.6584 26.3873C82.1042 26.3873 83.3672 27.5807 83.3672 29.3257C83.3672 31.0467 82.1042 32.2641 80.6584 32.2641ZM70.1655 24.5029C67.5023 24.5029 65.3439 26.546 65.3439 29.3474C65.3439 32.1259 67.5023 34.1918 70.1655 34.1918C72.8287 34.1918 74.9871 32.1488 74.9871 29.3474C74.9871 26.546 72.8287 24.5029 70.1655 24.5029ZM70.1655 32.2641C68.7185 32.2641 67.4566 31.0467 67.4566 29.3257C67.4566 27.5807 68.7197 26.3873 70.1655 26.3873C71.6124 26.3873 72.8743 27.5807 72.8743 29.3257C72.8743 31.0467 71.6341 32.2641 70.1655 32.2641ZM57.698 25.9955V28.0386H62.5653C62.4271 29.1864 62.0377 30.036 61.4633 30.6105C60.7518 31.3219 59.6497 32.1031 57.698 32.1031C54.6899 32.1031 52.3716 29.6694 52.3716 26.6613C52.3716 23.6533 54.6911 21.1739 57.698 21.1739C59.3277 21.1739 60.4994 21.8169 61.3719 22.6437L62.8177 21.1968C61.6003 20.0262 59.9706 19.1309 57.698 19.1309C53.5879 19.1309 50.1436 22.5055 50.1436 26.6157C50.1436 30.7258 53.5879 34.1005 57.698 34.1005C59.925 34.1005 61.5786 33.3662 62.9102 31.9877C64.2646 30.6333 64.6781 28.7273 64.6781 27.189C64.6781 26.707 64.6324 26.2708 64.5627 25.903L57.698 25.9955ZM108.716 27.5795C108.325 26.5003 107.086 24.5029 104.605 24.5029C102.125 24.5029 100.082 26.4546 100.082 29.3474C100.082 32.0563 102.125 34.1918 104.835 34.1918C107.039 34.1918 108.302 32.8374 108.83 32.0563L107.2 30.9542C106.648 31.7582 105.914 32.2858 104.835 32.2858C103.756 32.2858 102.999 31.8039 102.516 30.816L108.921 28.13L108.716 27.5795ZM102.195 29.2103C102.149 27.35 103.642 26.3861 104.697 26.3861C105.546 26.3861 106.235 26.7995 106.487 27.4196L102.195 29.2103ZM96.9824 33.8709H99.0952V19.6813H96.9824V33.8709ZM93.5392 25.5821H93.4707C92.9888 25.0077 92.0934 24.5029 90.9445 24.5029C88.5337 24.5029 86.3525 26.6385 86.3525 29.3474C86.3525 32.0563 88.5566 34.169 90.9445 34.169C92.0923 34.169 92.9876 33.6642 93.4707 33.0669H93.5392V33.7556C93.5392 35.6159 92.5514 36.6026 90.9674 36.6026C89.6815 36.6026 88.8775 35.6616 88.5566 34.8805L86.7202 35.6616C87.2478 36.9475 88.6491 38.5315 90.9674 38.5315C93.4467 38.5315 95.5366 37.0617 95.5366 33.5032V24.801H93.5392V25.5821ZM91.1284 32.2641C89.6815 32.2641 88.4652 31.0467 88.4652 29.3485C88.4652 27.6503 89.6826 26.4101 91.1284 26.4101C92.5525 26.4101 93.7003 27.6503 93.7003 29.3485C93.6991 31.0239 92.5514 32.2641 91.1284 32.2641ZM118.565 19.6813H113.514V33.8709H115.627V28.4977H118.565C120.908 28.4977 123.203 26.7984 123.203 24.0895C123.203 21.3806 120.908 19.6813 118.565 19.6813ZM118.634 26.5243H115.649V21.6559H118.634C120.195 21.6559 121.113 22.9646 121.113 24.0895C121.092 25.1916 120.196 26.5243 118.634 26.5243ZM131.63 24.4801C130.115 24.4801 128.531 25.1459 127.888 26.6613L129.748 27.4425C130.162 26.6613 130.896 26.409 131.677 26.409C132.779 26.409 133.881 27.0748 133.904 28.2453V28.3835C133.513 28.154 132.711 27.8319 131.7 27.8319C129.68 27.8319 127.635 28.9568 127.635 31.0239C127.635 32.9299 129.289 34.1462 131.125 34.1462C132.55 34.1462 133.33 33.5032 133.811 32.746H133.88V33.8481H135.923V28.4064C135.9 25.9042 134.041 24.4801 131.63 24.4801ZM131.378 32.2413C130.689 32.2413 129.724 31.8964 129.724 31.0479C129.724 29.9458 130.918 29.5324 131.951 29.5324C132.869 29.5324 133.306 29.7391 133.88 30.0143C133.719 31.3231 132.594 32.2413 131.378 32.2413ZM143.294 24.8021L140.883 30.9325H140.814L138.312 24.8021H136.04L139.805 33.389L137.669 38.1878H139.873L145.636 24.8021H143.294ZM124.375 33.8709H126.488V19.6813H124.375V33.8709Z" fill="#EDEDED"/>
</svg>
