<svg width="96" height="33" viewBox="0 0 96 33" fill="none" xmlns="http://www.w3.org/2000/svg">
<path d="M6.37012 5.08099H10.1124V27.9209H6.37012V5.08099ZM8.2527 24.3706H15.0018C16.3118 24.3706 17.2866 24.0957 17.9261 23.546C18.5655 22.9963 18.8868 22.2291 18.8898 21.2445V21.1969C18.8898 20.5159 18.7642 19.9356 18.5129 19.4561C18.2566 18.9698 17.8479 18.5807 17.3493 18.3484C16.8248 18.0919 16.1749 17.9636 15.3997 17.9636H8.2527V14.4418H15.3915C16.4308 14.4418 17.2221 14.1904 17.7656 13.6877C18.3091 13.1851 18.5817 12.4573 18.5835 11.5044C18.5835 10.5614 18.2953 9.84644 17.7188 9.35963C17.1423 8.87283 16.2932 8.62851 15.1714 8.62667H8.2527V5.08099H15.5327C17.0109 5.08099 18.2611 5.32989 19.2832 5.82769C20.3054 6.32549 21.0756 7.03494 21.594 7.95602C22.1143 8.87649 22.3744 9.98081 22.3744 11.269C22.3856 12.0601 22.2162 12.8435 21.8792 13.5595C21.5452 14.2485 21.04 14.8405 20.412 15.2792C19.7677 15.7403 18.9791 16.0546 18.0462 16.2219C19.0096 16.3582 19.8377 16.6749 20.5303 17.172C21.2134 17.6599 21.7602 18.3144 22.1186 19.0731C22.494 19.8824 22.6821 20.7658 22.6688 21.6577V21.7045C22.6688 22.9719 22.3937 24.0741 21.8435 25.011C21.2877 25.9534 20.4603 26.7064 19.4694 27.1714C18.4368 27.6747 17.2142 27.9261 15.8014 27.9254H8.2527V24.3706Z" fill="white"/>
<path d="M24.9512 5.08099H28.7108V27.9209H24.9512V5.08099ZM26.7118 24.3211H39.9504V27.919H26.7118V24.3211Z" fill="white"/>
<path d="M44.7374 27.1118C43.5117 26.427 42.5119 25.4007 41.8599 24.158C41.1789 22.8863 40.8384 21.4137 40.8384 19.7401V13.2635C40.8384 11.5887 41.1789 10.1149 41.8599 8.84197C42.5119 7.59927 43.5117 6.57296 44.7374 5.88815C45.9748 5.19184 47.4056 4.84369 49.0299 4.84369C50.6542 4.84369 52.085 5.19184 53.3223 5.88815C54.548 6.57296 55.5478 7.59927 56.1998 8.84197C56.8803 10.1137 57.2205 11.5875 57.2205 13.2635V19.7401C57.2205 21.4155 56.8799 22.8894 56.1989 24.1617C55.5469 25.4044 54.5471 26.4307 53.3214 27.1155C52.0841 27.8118 50.6533 28.16 49.029 28.16C47.4047 28.16 45.9742 27.8106 44.7374 27.1118ZM51.3022 23.8676C51.9558 23.4924 52.4835 22.9323 52.8189 22.2578C53.1759 21.5615 53.3541 20.7577 53.3535 19.8464V13.1582C53.3535 12.2475 53.1753 11.4437 52.8189 10.7467C52.4835 10.0723 51.9558 9.51215 51.3022 9.13699C50.6462 8.75402 49.8888 8.56406 49.0299 8.56711C48.171 8.57017 47.4138 8.7586 46.7585 9.13241C46.1044 9.50726 45.5763 10.0675 45.2409 10.7422C44.8845 11.4397 44.7063 12.2435 44.7063 13.1536V19.8418C44.7063 20.7525 44.8845 21.5563 45.2409 22.2533C45.5763 22.928 46.1044 23.4882 46.7585 23.863C47.4132 24.2405 48.1703 24.4289 49.0299 24.4283C49.8894 24.4277 50.6468 24.2408 51.3022 23.8676Z" fill="white"/>
<path d="M79.4567 27.4362C78.4544 26.9766 77.6018 26.2444 76.9964 25.3234C76.385 24.3969 76.0207 23.2895 75.9033 22.0013H79.7547C79.8152 22.5035 79.9933 22.9844 80.2746 23.4049C80.5318 23.7733 80.8851 24.0641 81.2962 24.246C81.7596 24.4431 82.2598 24.5393 82.7633 24.5282C83.7066 24.5282 84.435 24.2744 84.9485 23.7668C85.4621 23.2592 85.7191 22.5391 85.7197 21.6064V20.9935C85.7197 19.9881 85.4917 19.2106 85.0357 18.6609C84.5796 18.1111 83.927 17.8363 83.0779 17.8363H81.2962V14.2539H83.0733C83.7971 14.2539 84.3552 14.0154 84.7477 13.5384C85.1402 13.0614 85.3367 12.3938 85.3373 11.5356V10.9859C85.3373 10.1796 85.1234 9.55905 84.6954 9.12416C84.2675 8.68927 83.6678 8.47152 82.8963 8.47091C82.4563 8.4633 82.0213 8.56565 81.6309 8.76868C81.2418 8.98367 80.9145 9.29469 80.6799 9.67205C80.398 10.1265 80.2057 10.6306 80.1132 11.1572H76.2811C76.448 9.83727 76.8332 8.70088 77.4365 7.74803C78.0024 6.82922 78.8062 6.08025 79.7629 5.58031C80.7117 5.08862 81.7837 4.84247 82.9788 4.84186C84.9705 4.84186 86.5142 5.36104 87.6097 6.39939C88.7052 7.43775 89.2526 8.89878 89.252 10.7825V11.3166C89.252 12.4161 88.9637 13.3744 88.3873 14.1916C87.8108 15.0089 86.9934 15.6111 85.9352 15.9984C87.109 16.2604 88.018 16.8547 88.6624 17.7813C89.3067 18.7079 89.6292 19.8886 89.6298 21.3233V21.8575C89.6298 23.1878 89.3703 24.3242 88.8513 25.2666C88.338 26.204 87.5432 26.9568 86.579 27.4188C85.5831 27.9117 84.3883 28.1578 82.9944 28.1572C81.663 28.1566 80.4837 27.9163 79.4567 27.4362Z" fill="white"/>
<path d="M65.9183 14.3639L71.3579 5.08099H75.4303L67.8678 17.7098L61.8973 27.9209H57.8203L65.9183 14.3639ZM65.965 18.2284L65.5065 17.4579L58.0092 5.08099H62.0807L67.3992 14.0671L67.965 14.9933L75.7787 27.9227H71.7091L65.965 18.2284Z" fill="white"/>
<path d="M69.1889 5.07916H64.4224L66.7543 9.34039L69.1889 5.07916Z" fill="white"/>
<path d="M69.1889 27.9208H64.4224L66.7543 23.6596L69.1889 27.9208Z" fill="white"/>
</svg>
