<svg width="152" height="51" viewBox="0 0 152 51" fill="none" xmlns="http://www.w3.org/2000/svg">
<path d="M10.0864 7.30078H16.0116V43.7018H10.0864V7.30078ZM13.0672 38.0436H23.7532C25.8275 38.0436 27.3708 37.6055 28.3833 36.7294C29.3958 35.8533 29.9044 34.6306 29.9093 33.0614V32.9855C29.9093 31.9001 29.7104 30.9753 29.3125 30.2111C28.9067 29.436 28.2595 28.8159 27.4701 28.4458C26.6396 28.0369 25.6107 27.8325 24.3833 27.8325H13.0672V22.2195H24.3702C26.0157 22.2195 27.2687 21.819 28.1292 21.0178C28.9897 20.2166 29.4214 19.0568 29.4243 17.5382C29.4243 16.0351 28.9679 14.8957 28.0552 14.1199C27.1424 13.344 25.7979 12.9546 24.0218 12.9517H13.0672V7.30078H24.5938C26.9343 7.30078 28.9137 7.69747 30.5321 8.49084C32.1505 9.2842 33.3701 10.4149 34.1909 11.8829C35.0146 13.3499 35.4265 15.1099 35.4265 17.1629C35.4442 18.4238 35.1761 19.6722 34.6425 20.8134C34.1135 21.9115 33.3138 22.855 32.3194 23.5541C31.2992 24.2891 30.0506 24.7899 28.5735 25.0567C30.099 25.2738 31.41 25.7785 32.5067 26.5709C33.5883 27.3485 34.454 28.3915 35.0214 29.6008C35.6159 30.8906 35.9137 32.2985 35.8926 33.72V33.7944C35.8926 35.8144 35.457 37.571 34.5859 39.0643C33.7059 40.5662 32.3958 41.7663 30.8269 42.5074C29.192 43.3095 27.2561 43.7101 25.0192 43.7091H13.0672V38.0436Z" fill="#333333"/>
<path d="M39.5063 7.30078H45.4592V43.7018H39.5063V7.30078ZM42.294 37.9647H63.2552V43.6989H42.294V37.9647Z" fill="#333333"/>
<path d="M70.8341 42.4127C68.8934 41.3213 67.3104 39.6856 66.278 37.7051C65.1998 35.6783 64.6606 33.3313 64.6606 30.6641V20.342C64.6606 17.6728 65.1998 15.3238 66.278 13.2951C67.3104 11.3146 68.8934 9.67887 70.8341 8.58747C72.7932 7.47772 75.0587 6.92285 77.6305 6.92285C80.2023 6.92285 82.4678 7.47772 84.4269 8.58747C86.3675 9.67887 87.9506 11.3146 88.9829 13.2951C90.0602 15.3219 90.5989 17.6708 90.5989 20.342V30.6641C90.5989 33.3343 90.0598 35.6832 88.9815 37.7109C87.9491 39.6915 86.3661 41.3272 84.4254 42.4186C82.4663 43.5283 80.2008 44.0832 77.629 44.0832C75.0572 44.0832 72.7923 43.5264 70.8341 42.4127ZM81.2283 37.2422C82.2631 36.6443 83.0988 35.7516 83.6298 34.6767C84.195 33.5669 84.4772 32.2858 84.4762 30.8334V20.1741C84.4762 18.7226 84.1941 17.4416 83.6298 16.3308C83.0988 15.2559 82.2631 14.3632 81.2283 13.7653C80.1897 13.1549 78.9904 12.8522 77.6305 12.8571C76.2705 12.8619 75.0717 13.1622 74.0341 13.758C72.9985 14.3554 72.1623 15.2482 71.6312 16.3235C71.0669 17.4352 70.7848 18.7163 70.7848 20.1668V30.8261C70.7848 32.2776 71.0669 33.5586 71.6312 34.6694C72.1623 35.7447 72.9985 36.6375 74.0341 37.2349C75.0708 37.8365 76.2696 38.1368 77.6305 38.1358C78.9914 38.1349 80.1907 37.837 81.2283 37.2422Z" fill="#333333"/>
<path d="M104.37 22.0954L112.983 7.30078H119.431L107.457 27.428L98.0036 43.7018H91.5484L104.37 22.0954ZM104.444 28.2545L103.718 27.0265L91.8475 7.30078H98.294L106.715 21.6223L107.611 23.0986L119.983 43.7047H113.539L104.444 28.2545Z" fill="#333333"/>
<path d="M125.806 42.9296C124.219 42.1971 122.869 41.0302 121.911 39.5624C120.943 38.0857 120.366 36.3208 120.18 34.2678H126.278C126.374 35.0682 126.656 35.8346 127.101 36.5048C127.509 37.0918 128.068 37.5554 128.719 37.8453C129.452 38.1594 130.244 38.3128 131.042 38.295C132.535 38.295 133.689 37.8905 134.502 37.0816C135.315 36.2726 135.722 35.1249 135.723 33.6385V32.6616C135.723 31.0593 135.362 29.8201 134.64 28.9439C133.917 28.0678 132.884 27.6298 131.54 27.6298H128.719V21.9204H131.532C132.679 21.9204 133.562 21.5403 134.184 20.78C134.805 20.0198 135.116 18.9558 135.117 17.5881V16.7119C135.117 15.427 134.778 14.4379 134.101 13.7448C133.423 13.0517 132.474 12.7047 131.252 12.7037C130.555 12.6916 129.867 12.8547 129.249 13.1783C128.633 13.5209 128.114 14.0166 127.743 14.618C127.297 15.3423 126.992 16.1457 126.846 16.985H120.778C121.042 14.8814 121.652 13.0702 122.608 11.5516C123.503 10.0873 124.776 8.89361 126.291 8.09683C127.793 7.3132 129.491 6.9209 131.383 6.91992C134.536 6.91992 136.981 7.74736 138.715 9.40224C140.45 11.0571 141.316 13.3856 141.315 16.3878V17.2391C141.315 18.9913 140.859 20.5187 139.946 21.8211C139.033 23.1236 137.739 24.0835 136.064 24.7006C137.922 25.1183 139.362 26.0654 140.382 27.5422C141.402 29.0189 141.913 30.9006 141.914 33.1873V34.0385C141.914 36.1587 141.503 37.9699 140.681 39.4719C139.868 40.9658 138.61 42.1655 137.083 42.9019C135.506 43.6875 133.615 44.0798 131.408 44.0788C129.299 44.0778 127.432 43.6948 125.806 42.9296Z" fill="#333333"/>
<path d="M109.549 7.29785H102.002L105.694 14.0892L109.549 7.29785Z" fill="#333333"/>
<path d="M109.549 43.702H102.002L105.694 36.9106L109.549 43.702Z" fill="#333333"/>
</svg>
