<svg width="84" height="24" viewBox="0 0 84 24" fill="none" xmlns="http://www.w3.org/2000/svg">
<path d="M0.370117 0.580994H4.11237V23.4209H0.370117V0.580994ZM2.2527 19.8706H9.00177C10.3118 19.8706 11.2866 19.5957 11.9261 19.046C12.5655 18.4963 12.8868 17.7291 12.8898 16.7445V16.6969C12.8898 16.0159 12.7642 15.4356 12.5129 14.9561C12.2566 14.4698 11.8479 14.0807 11.3493 13.8484C10.8248 13.5919 10.1749 13.4636 9.39975 13.4636H2.2527V9.94177H9.39149C10.4308 9.94177 11.2221 9.69043 11.7656 9.18775C12.3091 8.68506 12.5817 7.95729 12.5835 7.00445C12.5835 6.06138 12.2953 5.34644 11.7188 4.85963C11.1423 4.37283 10.2932 4.12851 9.17142 4.12667H2.2527V0.580994H9.53271C11.0109 0.580994 12.2611 0.829894 13.2832 1.32769C14.3054 1.82549 15.0756 2.53494 15.594 3.45602C16.1143 4.37649 16.3744 5.48081 16.3744 6.76899C16.3856 7.56015 16.2162 8.34346 15.8792 9.05948C15.5452 9.74848 15.04 10.3405 14.412 10.7792C13.7677 11.2403 12.9791 11.5546 12.0462 11.7219C13.0096 11.8582 13.8377 12.1749 14.5303 12.672C15.2134 13.1599 15.7602 13.8144 16.1186 14.5731C16.494 15.3824 16.6821 16.2658 16.6688 17.1577V17.2045C16.6688 18.4719 16.3937 19.5741 15.8435 20.511C15.2877 21.4534 14.4603 22.2064 13.4694 22.6714C12.4368 23.1747 11.2142 23.4261 9.80139 23.4254H2.2527V19.8706Z" fill="#1D2A33"/>
<path d="M18.9512 0.580994H22.7108V23.4209H18.9512V0.580994ZM20.7118 19.8211H33.9504V23.419H20.7118V19.8211Z" fill="#1D2A33"/>
<path d="M38.7374 22.6118C37.5117 21.927 36.5119 20.9007 35.8599 19.658C35.1789 18.3863 34.8384 16.9137 34.8384 15.2401V8.76354C34.8384 7.08873 35.1789 5.61487 35.8599 4.34197C36.5119 3.09927 37.5117 2.07296 38.7374 1.38815C39.9748 0.691844 41.4056 0.343689 43.0299 0.343689C44.6542 0.343689 46.085 0.691844 47.3223 1.38815C48.548 2.07296 49.5478 3.09927 50.1998 4.34197C50.8803 5.61365 51.2205 7.08751 51.2205 8.76354V15.2401C51.2205 16.9155 50.8799 18.3894 50.1989 19.6617C49.5469 20.9044 48.5471 21.9307 47.3214 22.6155C46.0841 23.3118 44.6533 23.66 43.029 23.66C41.4047 23.66 39.9742 23.3106 38.7374 22.6118ZM45.3022 19.3676C45.9558 18.9924 46.4835 18.4323 46.8189 17.7578C47.1759 17.0615 47.3541 16.2577 47.3535 15.3464V8.65817C47.3535 7.74747 47.1753 6.94366 46.8189 6.24674C46.4835 5.57229 45.9558 5.01215 45.3022 4.63699C44.6462 4.25402 43.8888 4.06406 43.0299 4.06711C42.171 4.07017 41.4138 4.2586 40.7585 4.63241C40.1044 5.00726 39.5763 5.56745 39.2409 6.24216C38.8845 6.93969 38.7063 7.7435 38.7063 8.65359V15.3418C38.7063 16.2525 38.8845 17.0563 39.2409 17.7533C39.5763 18.428 40.1044 18.9882 40.7585 19.363C41.4132 19.7405 42.1703 19.9289 43.0299 19.9283C43.8894 19.9277 44.6468 19.7408 45.3022 19.3676Z" fill="#1D2A33"/>
<path d="M73.4567 22.9362C72.4544 22.4766 71.6018 21.7444 70.9964 20.8234C70.385 19.8969 70.0207 18.7895 69.9033 17.5013H73.7547C73.8152 18.0035 73.9933 18.4844 74.2746 18.9049C74.5318 19.2733 74.8851 19.5641 75.2962 19.746C75.7596 19.9431 76.2598 20.0393 76.7633 20.0282C77.7066 20.0282 78.435 19.7744 78.9485 19.2668C79.4621 18.7592 79.7191 18.0391 79.7197 17.1064V16.4935C79.7197 15.4881 79.4917 14.7106 79.0357 14.1609C78.5796 13.6111 77.927 13.3363 77.0779 13.3363H75.2962V9.75395H77.0733C77.7971 9.75395 78.3552 9.51543 78.7477 9.0384C79.1402 8.56136 79.3367 7.89376 79.3373 7.03559V6.48587C79.3373 5.67962 79.1234 5.05905 78.6954 4.62416C78.2675 4.18927 77.6678 3.97152 76.8963 3.97091C76.4563 3.9633 76.0213 4.06565 75.6309 4.26868C75.2418 4.48367 74.9145 4.79469 74.6799 5.17205C74.398 5.6265 74.2057 6.13059 74.1132 6.6572H70.2811C70.448 5.33727 70.8332 4.20088 71.4365 3.24803C72.0024 2.32922 72.8062 1.58025 73.7629 1.08031C74.7117 0.58862 75.7837 0.342469 76.9788 0.341858C78.9705 0.341858 80.5142 0.861036 81.6097 1.89939C82.7052 2.93775 83.2526 4.39878 83.252 6.28248V6.81662C83.252 7.91606 82.9637 8.8744 82.3873 9.69165C81.8108 10.5089 80.9934 11.1111 79.9352 11.4984C81.109 11.7604 82.018 12.3547 82.6624 13.2813C83.3067 14.2079 83.6292 15.3886 83.6298 16.8233V17.3575C83.6298 18.6878 83.3703 19.8242 82.8513 20.7666C82.338 21.704 81.5432 22.4568 80.579 22.9188C79.5831 23.4117 78.3883 23.6578 76.9944 23.6572C75.663 23.6566 74.4837 23.4163 73.4567 22.9362Z" fill="#1D2A33"/>
<path d="M59.9183 9.8639L65.3579 0.580994H69.4303L61.8678 13.2098L55.8973 23.4209H51.8203L59.9183 9.8639ZM59.965 13.7284L59.5065 12.9579L52.0092 0.580994H56.0807L61.3992 9.56705L61.965 10.4933L69.7787 23.4227H65.7091L59.965 13.7284Z" fill="#1D2A33"/>
<path d="M63.1889 0.579163H58.4224L60.7543 4.84039L63.1889 0.579163Z" fill="#1D2A33"/>
<path d="M63.1889 23.4208H58.4224L60.7543 19.1596L63.1889 23.4208Z" fill="#1D2A33"/>
</svg>
