<svg width="40" height="40" viewBox="0 0 40 40" fill="none" xmlns="http://www.w3.org/2000/svg">
<path d="M6.66666 19.5427C6.66666 18.9099 7.13692 18.3869 7.74705 18.3041L7.91666 18.2927H32.9167C33.607 18.2927 34.1667 18.8524 34.1667 19.5427C34.1667 20.1756 33.6964 20.6985 33.0863 20.7813L32.9167 20.7927H7.91666C7.22631 20.7927 6.66666 20.2331 6.66666 19.5427Z" fill="#D9D9D9"/>
<path d="M21.9517 10.3879C21.4625 9.90075 21.4608 9.1093 21.9479 8.6201C22.3907 8.17536 23.0851 8.13353 23.5752 8.49556L23.7156 8.61629L33.799 18.6563C34.245 19.1004 34.2856 19.7973 33.9207 20.2874L33.799 20.4278L23.7157 30.4695C23.2266 30.9566 22.4351 30.955 21.948 30.4658C21.5051 30.0211 21.4662 29.3266 21.8303 28.838L21.9516 28.698L31.145 19.5416L21.9517 10.3879Z" fill="#D9D9D9"/>
</svg>
