<svg width="22" height="22" viewBox="0 0 22 22" fill="none" xmlns="http://www.w3.org/2000/svg">
<path fill-rule="evenodd" clip-rule="evenodd" d="M5.25 11C5.25 10.5858 5.58579 10.25 6 10.25H16C16.4142 10.25 16.75 10.5858 16.75 11C16.75 11.4142 16.4142 11.75 16 11.75H6C5.58579 11.75 5.25 11.4142 5.25 11Z" fill="white"/>
<path fill-rule="evenodd" clip-rule="evenodd" d="M11 5.25C11.4142 5.25 11.75 5.58579 11.75 6L11.75 16C11.75 16.4142 11.4142 16.75 11 16.75C10.5858 16.75 10.25 16.4142 10.25 16L10.25 6C10.25 5.58579 10.5858 5.25 11 5.25Z" fill="white"/>
<circle cx="11" cy="11" r="10.5" stroke="#FAFAFA"/>
</svg>
