<svg width="40" height="40" viewBox="0 0 40 40" fill="none" xmlns="http://www.w3.org/2000/svg">
<path d="M33.3333 20.4573C33.3333 21.0901 32.8631 21.6131 32.253 21.6959L32.0833 21.7073L7.08334 21.7073C6.39299 21.7073 5.83334 21.1476 5.83334 20.4573C5.83334 19.8244 6.3036 19.3015 6.91372 19.2187L7.08334 19.2073L32.0833 19.2073C32.7737 19.2073 33.3333 19.7669 33.3333 20.4573Z" fill="#D9D9D9"/>
<path d="M18.0483 29.6121C18.5375 30.0992 18.5392 30.8907 18.0521 31.3799C17.6093 31.8246 16.915 31.8665 16.4248 31.5044L16.2844 31.3837L6.20104 21.3437C5.75498 20.8996 5.7144 20.2027 6.07932 19.7126L6.20097 19.5722L16.2843 9.53055C16.7735 9.0434 17.5649 9.04504 18.0521 9.53421C18.4949 9.9789 18.5338 10.6734 18.1697 11.162L18.0484 11.302L8.85502 20.4584L18.0483 29.6121Z" fill="#D9D9D9"/>
</svg>
