<svg width="70" height="70" viewBox="0 0 70 70" fill="none" xmlns="http://www.w3.org/2000/svg">
<path d="M23.596 33.921H9.9168C10.1501 20.3001 12.8335 18.0542 21.2043 13.0959C22.1668 12.5126 22.4876 11.2876 21.9043 10.2959C21.3209 9.33343 20.0959 9.01263 19.1042 9.59596C9.24586 15.4293 5.8042 18.9876 5.8042 35.9626V51.6834C5.8042 56.6709 9.85844 60.6959 14.8168 60.6959H23.5668C28.7001 60.6959 32.5792 56.8168 32.5792 51.6834V42.9334C32.6083 37.8001 28.7293 33.921 23.596 33.921Z" fill="#EFE5DA"/>
<path d="M55.1541 33.921H41.475C41.7083 20.3001 44.3918 18.0542 52.7626 13.0959C53.7251 12.5126 54.0459 11.2876 53.4626 10.2959C52.8793 9.33343 51.6542 9.01263 50.6625 9.59596C40.8042 15.4293 37.3625 18.9876 37.3625 35.9626V51.6834C37.3625 56.6709 41.4168 60.6959 46.3751 60.6959H55.1251C60.2585 60.6959 64.1375 56.8168 64.1375 51.6834V42.9334C64.1667 37.8001 60.2875 33.921 55.1541 33.921Z" fill="#EFE5DA"/>
</svg>
