<svg width="686" height="244" viewBox="0 0 686 244" fill="none" xmlns="http://www.w3.org/2000/svg">
<path fill-rule="evenodd" clip-rule="evenodd" d="M0.937271 0.00341797L685.006 0.00326955L685.006 109.725C685.005 109.725 685.004 109.725 685.003 109.725C675.277 109.725 667.393 117.609 667.393 127.335C667.393 137.06 675.277 144.944 685.003 144.944C685.004 144.944 685.005 144.944 685.006 144.944L685.006 243.83L0.937324 243.83L0.937303 144.943L0.937965 144.943C10.6635 144.943 18.5476 137.059 18.5476 127.334C18.5476 117.608 10.6635 109.724 0.937957 109.724L0.937295 109.724L0.937271 0.00341797Z" fill="white"/>
<mask id="path-2-inside-1_194_452" fill="white">
<path fill-rule="evenodd" clip-rule="evenodd" d="M0.937256 0.00341797L685.006 0.00326955L685.006 109.725C685.005 109.725 685.004 109.725 685.003 109.725C675.277 109.725 667.393 117.609 667.393 127.335C667.393 137.06 675.277 144.944 685.003 144.944C685.004 144.944 685.005 144.944 685.006 144.944L685.006 243.83L0.937309 243.83L0.937287 144.943L0.937949 144.943C10.6635 144.943 18.5476 137.059 18.5476 127.334C18.5476 117.608 10.6635 109.724 0.937942 109.724L0.93728 109.724L0.937256 0.00341797Z"/>
</mask>
<path d="M685.006 0.00326955L691.779 0.00326808L691.779 -6.76969L685.006 -6.76969L685.006 0.00326955ZM0.937256 0.00341797L0.937254 -6.76954L-5.8357 -6.76954L-5.8357 0.00341944L0.937256 0.00341797ZM685.006 109.725L685.006 116.498L691.779 116.498L691.779 109.725L685.006 109.725ZM685.006 144.944L691.779 144.944L691.779 138.171L685.006 138.171L685.006 144.944ZM685.006 243.83L685.006 250.603L691.779 250.603L691.779 243.83L685.006 243.83ZM0.937309 243.83L-5.83565 243.83L-5.83565 250.603L0.93731 250.603L0.937309 243.83ZM0.937287 144.943L0.937286 138.17L-5.83567 138.17L-5.83567 144.943L0.937287 144.943ZM0.93728 109.724L-5.83568 109.724L-5.83568 116.497L0.937281 116.497L0.93728 109.724ZM685.006 -6.76969L0.937254 -6.76954L0.937257 6.77637L685.006 6.77623L685.006 -6.76969ZM691.779 109.725L691.779 0.00326808L678.233 0.00327102L678.233 109.725L691.779 109.725ZM685.003 116.498C685.003 116.498 685.004 116.498 685.004 116.498C685.005 116.498 685.005 116.498 685.006 116.498L685.006 102.952C685.005 102.952 685.005 102.952 685.004 102.952C685.004 102.952 685.003 102.952 685.003 102.952L685.003 116.498ZM674.166 127.335C674.166 121.35 679.018 116.498 685.003 116.498L685.003 102.952C671.537 102.952 660.62 113.868 660.62 127.335L674.166 127.335ZM685.003 138.171C679.018 138.171 674.166 133.32 674.166 127.335L660.62 127.335C660.62 140.801 671.537 151.717 685.003 151.717L685.003 138.171ZM685.006 138.171C685.005 138.171 685.005 138.171 685.004 138.171C685.004 138.171 685.003 138.171 685.003 138.171L685.003 151.717C685.003 151.717 685.004 151.717 685.004 151.717C685.005 151.717 685.005 151.717 685.006 151.717L685.006 138.171ZM691.779 243.83L691.779 144.944L678.233 144.944L678.233 243.83L691.779 243.83ZM0.93731 250.603L685.006 250.603L685.006 237.057L0.937307 237.057L0.93731 250.603ZM-5.83567 144.943L-5.83565 243.83L7.71027 243.83L7.71024 144.943L-5.83567 144.943ZM0.937948 138.17L0.937286 138.17L0.937289 151.716L0.937951 151.716L0.937948 138.17ZM11.7747 127.334C11.7747 133.319 6.92291 138.17 0.937948 138.17L0.937951 151.716C14.4041 151.716 25.3206 140.8 25.3206 127.334L11.7747 127.334ZM0.937943 116.497C6.9229 116.497 11.7747 121.349 11.7747 127.334L25.3206 127.334C25.3206 113.867 14.4041 102.951 0.93794 102.951L0.937943 116.497ZM0.937281 116.497L0.937943 116.497L0.93794 102.951L0.937278 102.951L0.937281 116.497ZM-5.8357 0.00341944L-5.83568 109.724L7.71024 109.724L7.71021 0.0034165L-5.8357 0.00341944Z" fill="black" mask="url(#path-2-inside-1_194_452)"/>
</svg>
