<svg width="145" height="112" viewBox="0 0 145 112" fill="none" xmlns="http://www.w3.org/2000/svg">
<g clip-path="url(#clip0_194_453)">
<g filter="url(#filter0_d_194_453)">
<rect x="0.550781" y="0.536621" width="143.846" height="81.0766" fill="black"/>
<path d="M29.5382 100.76L26.1422 100.76L25.5422 102.464L23.7542 102.464L26.8742 94.0879L28.8062 94.0879L31.9142 102.464L30.1262 102.464L29.5382 100.76ZM29.0822 99.4759L27.8342 95.8999L26.5862 99.4759L29.0822 99.4759ZM37.9154 93.9919L40.1834 100.7L42.4634 93.9919L44.2754 93.9919L41.2754 102.464L39.1034 102.464L36.1034 93.9919L37.9154 93.9919ZM54.2484 100.76L50.8524 100.76L50.2524 102.464L48.4644 102.464L51.5844 94.0879L53.5164 94.0879L56.6244 102.464L54.8364 102.464L54.2484 100.76ZM53.7924 99.4759L52.5444 95.8999L51.2964 99.4759L53.7924 99.4759ZM63.1296 93.9919L63.1296 102.464L61.4376 102.464L61.4376 93.9919L63.1296 93.9919ZM70.2523 101.168L73.0963 101.168L73.0963 102.464L68.5603 102.464L68.5602 93.9919L70.2522 93.9919L70.2523 101.168ZM83.1632 100.76L79.7672 100.76L79.1672 102.464L77.3792 102.464L80.4992 94.0878L82.4312 94.0878L85.5392 102.464L83.7512 102.464L83.1632 100.76ZM82.7072 99.4758L81.4592 95.8998L80.2112 99.4758L82.7072 99.4758ZM95.0804 98.0958C95.5924 98.1998 96.0004 98.4438 96.3044 98.8278C96.6164 99.2038 96.7724 99.6478 96.7724 100.16C96.7724 100.872 96.5324 101.436 96.0524 101.852C95.5804 102.26 94.8924 102.464 93.9884 102.464L90.3524 102.464L90.3524 93.9918L93.9164 93.9918C94.7724 93.9918 95.4284 94.1798 95.8844 94.5558C96.3484 94.9318 96.5804 95.4598 96.5804 96.1398C96.5804 96.6678 96.4404 97.0998 96.1604 97.4358C95.8884 97.7718 95.5284 97.9918 95.0804 98.0958ZM92.0444 97.5438L93.5684 97.5438C93.9924 97.5438 94.3124 97.4518 94.5284 97.2678C94.7524 97.0758 94.8644 96.8038 94.8644 96.4518C94.8644 96.0998 94.7564 95.8278 94.5404 95.6358C94.3244 95.4438 93.9924 95.3478 93.5444 95.3478L92.0444 95.3478L92.0444 97.5438ZM93.6524 101.084C94.1004 101.084 94.4444 100.988 94.6844 100.796C94.9244 100.596 95.0444 100.308 95.0444 99.9318C95.0444 99.5558 94.9204 99.2678 94.6724 99.0678C94.4324 98.8598 94.0884 98.7558 93.6404 98.7558L92.0444 98.7558L92.0444 101.084L93.6524 101.084ZM103.55 101.168L106.394 101.168L106.394 102.464L101.858 102.464L101.858 93.9918L103.55 93.9918L103.55 101.168ZM112.993 95.3358L112.993 97.5318L115.993 97.5318L115.993 98.8278L112.993 98.8278L112.993 101.108L116.353 101.108L116.353 102.464L111.301 102.464L111.301 93.9918L116.353 93.9918L116.353 95.3358L112.993 95.3358Z" fill="black"/>
<path d="M73.6572 31.9678L85.6926 11.4126L94.7024 11.4128L77.9701 39.3771L64.76 61.9874L55.7401 61.9872L73.6572 31.9678ZM73.7604 40.5252L72.746 38.819L56.1596 11.4116L65.1674 11.4119L76.9337 31.3106L78.1854 33.3617L95.4717 61.9924L86.468 61.9922L73.7604 40.5252Z" fill="white"/>
<path d="M80.8898 11.409L70.352 11.4087L75.5071 20.8377L80.8898 11.409Z" fill="white"/>
<path d="M80.8849 61.9785L70.3471 61.9782L75.5027 52.5495L80.8849 61.9785Z" fill="white"/>
</g>
</g>
<defs>
<filter id="filter0_d_194_453" x="-3.44922" y="0.536621" width="151.846" height="109.927" filterUnits="userSpaceOnUse" color-interpolation-filters="sRGB">
<feFlood flood-opacity="0" result="BackgroundImageFix"/>
<feColorMatrix in="SourceAlpha" type="matrix" values="0 0 0 0 0 0 0 0 0 0 0 0 0 0 0 0 0 0 127 0" result="hardAlpha"/>
<feOffset dy="4"/>
<feGaussianBlur stdDeviation="2"/>
<feComposite in2="hardAlpha" operator="out"/>
<feColorMatrix type="matrix" values="0 0 0 0 0 0 0 0 0 0 0 0 0 0 0 0 0 0 0.25 0"/>
<feBlend mode="normal" in2="BackgroundImageFix" result="effect1_dropShadow_194_453"/>
<feBlend mode="normal" in="SourceGraphic" in2="effect1_dropShadow_194_453" result="shape"/>
</filter>
<clipPath id="clip0_194_453">
<rect width="143.846" height="110.601" fill="white" transform="translate(0.550781 0.536621)"/>
</clipPath>
</defs>
</svg>
