<svg width="1111" height="1111" viewBox="0 0 1111 1111" fill="none" xmlns="http://www.w3.org/2000/svg">
<g style="mix-blend-mode:overlay">
<path opacity="0.1" d="M555.5 1111C862.294 1111 1111 862.294 1111 555.5C1111 248.706 862.294 0 555.5 0C248.706 0 0 248.706 0 555.5C0 862.294 248.706 1111 555.5 1111Z" fill="url(#paint0_radial_1326_5456)"/>
<path opacity="0.2" d="M555.5 1045C825.843 1045 1045 825.843 1045 555.5C1045 285.157 825.843 66 555.5 66C285.157 66 66 285.157 66 555.5C66 825.843 285.157 1045 555.5 1045Z" fill="url(#paint1_radial_1326_5456)"/>
<path opacity="0.24" d="M555.5 961C779.451 961 961 779.451 961 555.5C961 331.549 779.451 150 555.5 150C331.549 150 150 331.549 150 555.5C150 779.451 331.549 961 555.5 961Z" fill="url(#paint2_radial_1326_5456)"/>
<path opacity="0.3" d="M555.68 874.171C731.578 874.171 874.171 731.578 874.171 555.68C874.171 379.782 731.578 237.189 555.68 237.189C379.783 237.189 237.189 379.782 237.189 555.68C237.189 731.578 379.783 874.171 555.68 874.171Z" fill="url(#paint3_radial_1326_5456)"/>
<path opacity="0.42" d="M555.5 824C703.788 824 824 703.788 824 555.5C824 407.212 703.788 287 555.5 287C407.212 287 287 407.212 287 555.5C287 703.788 407.212 824 555.5 824Z" fill="url(#paint4_radial_1326_5456)"/>
<path opacity="0.63" d="M555.5 761C668.995 761 761 668.995 761 555.5C761 442.005 668.995 350 555.5 350C442.005 350 350 442.005 350 555.5C350 668.995 442.005 761 555.5 761Z" fill="url(#paint5_radial_1326_5456)"/>
</g>
<defs>
<radialGradient id="paint0_radial_1326_5456" cx="0" cy="0" r="1" gradientUnits="userSpaceOnUse" gradientTransform="translate(555.5 555.5) scale(555.5)">
<stop offset="0.7" stop-opacity="0"/>
<stop offset="0.97" stop-color="#109B7E"/>
</radialGradient>
<radialGradient id="paint1_radial_1326_5456" cx="0" cy="0" r="1" gradientUnits="userSpaceOnUse" gradientTransform="translate(555.5 555.5) scale(489.5)">
<stop offset="0.7" stop-opacity="0"/>
<stop offset="0.97" stop-color="#109B7E"/>
</radialGradient>
<radialGradient id="paint2_radial_1326_5456" cx="0" cy="0" r="1" gradientUnits="userSpaceOnUse" gradientTransform="translate(555.5 555.5) scale(405.5)">
<stop offset="0.7" stop-opacity="0"/>
<stop offset="0.97" stop-color="#109B7E"/>
</radialGradient>
<radialGradient id="paint3_radial_1326_5456" cx="0" cy="0" r="1" gradientUnits="userSpaceOnUse" gradientTransform="translate(555.68 555.68) scale(318.491)">
<stop offset="0.7" stop-opacity="0"/>
<stop offset="0.97" stop-color="#109B7E"/>
</radialGradient>
<radialGradient id="paint4_radial_1326_5456" cx="0" cy="0" r="1" gradientUnits="userSpaceOnUse" gradientTransform="translate(555.5 555.5) scale(268.5)">
<stop offset="0.7" stop-opacity="0"/>
<stop offset="0.97" stop-color="#109B7E"/>
</radialGradient>
<radialGradient id="paint5_radial_1326_5456" cx="0" cy="0" r="1" gradientUnits="userSpaceOnUse" gradientTransform="translate(555.5 555.5) scale(205.5)">
<stop offset="0.7" stop-opacity="0"/>
<stop offset="0.97" stop-color="#109B7E"/>
</radialGradient>
</defs>
</svg>
