<svg width="1402" height="1402" viewBox="0 0 1402 1402" fill="none" xmlns="http://www.w3.org/2000/svg">
<g style="mix-blend-mode:overlay">
<path opacity="0.05" d="M700.68 1401.36C1087.65 1401.36 1401.36 1087.65 1401.36 700.68C1401.36 313.705 1087.65 0 700.68 0C313.705 0 0 313.705 0 700.68C0 1087.65 313.705 1401.36 700.68 1401.36Z" fill="url(#paint0_radial_1162_4904)"/>
<path opacity="0.15" d="M700.68 1337.66C1052.48 1337.66 1337.66 1052.48 1337.66 700.68C1337.66 348.885 1052.48 63.6982 700.68 63.6982C348.885 63.6982 63.6982 348.885 63.6982 700.68C63.6982 1052.48 348.885 1337.66 700.68 1337.66Z" fill="url(#paint1_radial_1162_4904)"/>
<path opacity="0.24" d="M700.68 1273.96C1017.3 1273.96 1273.96 1017.3 1273.96 700.68C1273.96 384.064 1017.3 127.396 700.68 127.396C384.064 127.396 127.396 384.064 127.396 700.68C127.396 1017.3 384.064 1273.96 700.68 1273.96Z" fill="url(#paint2_radial_1162_4904)"/>
<path opacity="0.33" d="M700.68 1210.27C982.117 1210.27 1210.27 982.117 1210.27 700.68C1210.27 419.244 982.117 191.095 700.68 191.095C419.244 191.095 191.095 419.244 191.095 700.68C191.095 982.117 419.244 1210.27 700.68 1210.27Z" fill="url(#paint3_radial_1162_4904)"/>
<path opacity="0.43" d="M700.68 1146.57C946.937 1146.57 1146.57 946.937 1146.57 700.68C1146.57 454.423 946.937 254.793 700.68 254.793C454.423 254.793 254.793 454.423 254.793 700.68C254.793 946.937 454.423 1146.57 700.68 1146.57Z" fill="url(#paint4_radial_1162_4904)"/>
<path opacity="0.53" d="M700.68 1082.87C911.758 1082.87 1082.87 911.758 1082.87 700.68C1082.87 489.603 911.758 318.491 700.68 318.491C489.603 318.491 318.491 489.603 318.491 700.68C318.491 911.758 489.603 1082.87 700.68 1082.87Z" fill="url(#paint5_radial_1162_4904)"/>
<path opacity="0.62" d="M700.68 1019.17C876.578 1019.17 1019.17 876.578 1019.17 700.68C1019.17 524.782 876.578 382.189 700.68 382.189C524.783 382.189 382.189 524.782 382.189 700.68C382.189 876.578 524.783 1019.17 700.68 1019.17Z" fill="url(#paint6_radial_1162_4904)"/>
<path opacity="0.71" d="M700.68 955.473C841.399 955.473 955.473 841.398 955.473 700.68C955.473 559.962 841.399 445.887 700.68 445.887C559.962 445.887 445.888 559.962 445.888 700.68C445.888 841.398 559.962 955.473 700.68 955.473Z" fill="url(#paint7_radial_1162_4904)"/>
<path opacity="0.81" d="M700.68 891.775C806.219 891.775 891.775 806.219 891.775 700.68C891.775 595.141 806.219 509.585 700.68 509.585C595.142 509.585 509.586 595.141 509.586 700.68C509.586 806.219 595.142 891.775 700.68 891.775Z" fill="url(#paint8_radial_1162_4904)"/>
<path opacity="0.91" d="M700.68 828.076C771.039 828.076 828.076 771.039 828.076 700.68C828.076 630.321 771.039 573.284 700.68 573.284C630.32 573.284 573.283 630.321 573.283 700.68C573.283 771.039 630.32 828.076 700.68 828.076Z" fill="url(#paint9_radial_1162_4904)"/>
</g>
<defs>
<radialGradient id="paint0_radial_1162_4904" cx="0" cy="0" r="1" gradientUnits="userSpaceOnUse" gradientTransform="translate(700.68 700.68) scale(700.68)">
<stop offset="0.7" stop-opacity="0"/>
<stop offset="0.97" stop-color="#109B7E"/>
</radialGradient>
<radialGradient id="paint1_radial_1162_4904" cx="0" cy="0" r="1" gradientUnits="userSpaceOnUse" gradientTransform="translate(700.68 700.68) scale(636.982)">
<stop offset="0.7" stop-opacity="0"/>
<stop offset="0.97" stop-color="#109B7E"/>
</radialGradient>
<radialGradient id="paint2_radial_1162_4904" cx="0" cy="0" r="1" gradientUnits="userSpaceOnUse" gradientTransform="translate(700.68 700.68) scale(573.284)">
<stop offset="0.7" stop-opacity="0"/>
<stop offset="0.97" stop-color="#109B7E"/>
</radialGradient>
<radialGradient id="paint3_radial_1162_4904" cx="0" cy="0" r="1" gradientUnits="userSpaceOnUse" gradientTransform="translate(700.68 700.68) scale(509.585)">
<stop offset="0.7" stop-opacity="0"/>
<stop offset="0.97" stop-color="#109B7E"/>
</radialGradient>
<radialGradient id="paint4_radial_1162_4904" cx="0" cy="0" r="1" gradientUnits="userSpaceOnUse" gradientTransform="translate(700.68 700.68) scale(445.887)">
<stop offset="0.7" stop-opacity="0"/>
<stop offset="0.97" stop-color="#109B7E"/>
</radialGradient>
<radialGradient id="paint5_radial_1162_4904" cx="0" cy="0" r="1" gradientUnits="userSpaceOnUse" gradientTransform="translate(700.68 700.68) scale(382.189)">
<stop offset="0.7" stop-opacity="0"/>
<stop offset="0.97" stop-color="#109B7E"/>
</radialGradient>
<radialGradient id="paint6_radial_1162_4904" cx="0" cy="0" r="1" gradientUnits="userSpaceOnUse" gradientTransform="translate(700.68 700.68) scale(318.491)">
<stop offset="0.7" stop-opacity="0"/>
<stop offset="0.97" stop-color="#109B7E"/>
</radialGradient>
<radialGradient id="paint7_radial_1162_4904" cx="0" cy="0" r="1" gradientUnits="userSpaceOnUse" gradientTransform="translate(700.68 700.68) scale(254.793)">
<stop offset="0.7" stop-opacity="0"/>
<stop offset="0.97" stop-color="#109B7E"/>
</radialGradient>
<radialGradient id="paint8_radial_1162_4904" cx="0" cy="0" r="1" gradientUnits="userSpaceOnUse" gradientTransform="translate(700.68 700.68) scale(191.095)">
<stop offset="0.7" stop-opacity="0"/>
<stop offset="0.97" stop-color="#109B7E"/>
</radialGradient>
<radialGradient id="paint9_radial_1162_4904" cx="0" cy="0" r="1" gradientUnits="userSpaceOnUse" gradientTransform="translate(700.68 700.68) scale(127.396)">
<stop offset="0.7" stop-opacity="0"/>
<stop offset="0.97" stop-color="#109B7E" stop-opacity="0.63"/>
</radialGradient>
</defs>
</svg>
