<svg width="160" height="51" viewBox="0 0 160 51" fill="none" xmlns="http://www.w3.org/2000/svg">
<path d="M154.074 0.396484H5.92593C2.65313 0.396484 0 3.1947 0 6.64648V44.1465C0 47.5983 2.65313 50.3965 5.92593 50.3965H154.074C157.347 50.3965 160 47.5983 160 44.1465V6.64648C160 3.1947 157.347 0.396484 154.074 0.396484Z" fill="black"/>
<path fill-rule="evenodd" clip-rule="evenodd" d="M24.7039 14.1916C18.235 14.1916 12.991 19.4357 12.991 25.9046C12.991 32.3735 18.235 37.6176 24.7039 37.6176C31.1728 37.6176 36.4169 32.3735 36.4169 25.9046C36.4169 19.4357 31.1728 14.1916 24.7039 14.1916ZM10.8613 25.9046C10.8613 18.2596 17.0589 12.062 24.7039 12.062C32.349 12.062 38.5465 18.2596 38.5465 25.9046C38.5465 33.5497 32.349 39.7472 24.7039 39.7472C17.0589 39.7472 10.8613 33.5497 10.8613 25.9046Z" fill="white"/>
<path fill-rule="evenodd" clip-rule="evenodd" d="M11.5918 21.6454C11.5918 21.0573 12.0685 20.5806 12.6566 20.5806H36.748C37.3361 20.5806 37.8129 21.0573 37.8129 21.6454C37.8129 22.2335 37.3361 22.7102 36.748 22.7102H12.6566C12.0685 22.7102 11.5918 22.2335 11.5918 21.6454Z" fill="white"/>
<path fill-rule="evenodd" clip-rule="evenodd" d="M11.5918 30.1639C11.5918 29.5759 12.0685 29.0991 12.6566 29.0991H36.748C37.3361 29.0991 37.8129 29.5759 37.8129 30.1639C37.8129 30.752 37.3361 31.2288 36.748 31.2288H12.6566C12.0685 31.2288 11.5918 30.752 11.5918 30.1639Z" fill="white"/>
<path fill-rule="evenodd" clip-rule="evenodd" d="M21.9175 17.5334C21.0232 19.6215 20.4441 22.5805 20.4441 25.9047C20.4441 29.2289 21.0232 32.1879 21.9175 34.2761C22.3654 35.3221 22.8715 36.1005 23.3792 36.6019C23.8824 37.0988 24.3286 37.2716 24.7033 37.2716C25.0781 37.2716 25.5243 37.0988 26.0275 36.6019C26.5352 36.1005 27.0412 35.3221 27.4892 34.2761C28.3835 32.1879 28.9626 29.2289 28.9626 25.9047C28.9626 22.5805 28.3835 19.6215 27.4892 17.5334C27.0412 16.4874 26.5352 15.709 26.0275 15.2076C25.5243 14.7107 25.0781 14.5378 24.7033 14.5378C24.3286 14.5378 23.8824 14.7107 23.3792 15.2076C22.8715 15.709 22.3654 16.4874 21.9175 17.5334ZM21.8827 13.6924C22.6535 12.9311 23.6079 12.4082 24.7033 12.4082C25.7988 12.4082 26.7532 12.9311 27.5239 13.6924C28.2902 14.4491 28.9314 15.4913 29.4469 16.695C30.4795 19.1062 31.0922 22.3631 31.0922 25.9047C31.0922 29.4464 30.4795 32.7032 29.4469 35.1145C28.9314 36.3182 28.2902 37.3604 27.5239 38.1171C26.7532 38.8784 25.7988 39.4013 24.7033 39.4013C23.6079 39.4013 22.6535 38.8784 21.8827 38.1171C21.1165 37.3604 20.4753 36.3182 19.9598 35.1145C18.9272 32.7032 18.3145 29.4464 18.3145 25.9047C18.3145 22.3631 18.9272 19.1062 19.9598 16.695C20.4753 15.4913 21.1165 14.4491 21.8827 13.6924Z" fill="white"/>
<path d="M60.376 33.304L57.16 25.24L53.976 33.304L51.32 25.8H49.128L53.704 37.592L57.16 29.672L60.616 37.592L65.192 25.8H63L60.376 33.304ZM68.3353 37.16C69.1886 37.16 69.9193 36.9947 70.5273 36.664C71.1353 36.3333 71.6313 35.8373 72.0153 35.176L70.5273 34.568C70.2926 34.9627 69.9993 35.256 69.6473 35.448C69.2953 35.64 68.8846 35.736 68.4153 35.736C67.9673 35.736 67.5833 35.64 67.2633 35.448C66.9539 35.256 66.7193 34.9787 66.5593 34.616C66.3993 34.2427 66.3193 33.7893 66.3193 33.256C66.3299 32.7227 66.4153 32.2747 66.5753 31.912C66.7353 31.5493 66.9699 31.272 67.2793 31.08C67.5886 30.888 67.9619 30.792 68.3993 30.792C68.7619 30.792 69.0766 30.872 69.3433 31.032C69.6206 31.192 69.8339 31.416 69.9833 31.704C70.1433 31.992 70.2233 32.3333 70.2233 32.728C70.2233 32.8027 70.2019 32.8987 70.1593 33.016C70.1273 33.1227 70.0953 33.208 70.0633 33.272L70.5913 32.536H65.5993V33.72H72.0633C72.0739 33.6773 72.0793 33.608 72.0793 33.512C72.0899 33.416 72.0953 33.3253 72.0953 33.24C72.0953 32.4507 71.9459 31.7787 71.6473 31.224C71.3593 30.6587 70.9433 30.2267 70.3993 29.928C69.8553 29.6293 69.1939 29.48 68.4153 29.48C67.6366 29.48 66.9593 29.64 66.3832 29.96C65.8073 30.2693 65.3593 30.712 65.0393 31.288C64.7299 31.864 64.5753 32.5413 64.5753 33.32C64.5753 34.088 64.7299 34.76 65.0393 35.336C65.3486 35.912 65.7859 36.36 66.3513 36.68C66.9273 37 67.5886 37.16 68.3353 37.16ZM75.4246 24.52H73.6806V37H75.4246V24.52ZM81.5206 33.32C81.5206 32.5093 81.3553 31.8213 81.0246 31.256C80.694 30.68 80.2566 30.2427 79.7126 29.944C79.1686 29.6347 78.5766 29.48 77.9366 29.48C77.3286 29.48 76.7846 29.6347 76.3046 29.944C75.8353 30.2533 75.4673 30.696 75.2006 31.272C74.934 31.8373 74.8006 32.52 74.8006 33.32C74.8006 34.1093 74.934 34.792 75.2006 35.368C75.4673 35.944 75.8353 36.3867 76.3046 36.696C76.7846 37.0053 77.3286 37.16 77.9366 37.16C78.5766 37.16 79.1686 37.0107 79.7126 36.712C80.2566 36.4027 80.694 35.96 81.0246 35.384C81.3553 34.808 81.5206 34.12 81.5206 33.32ZM79.7286 33.32C79.7286 33.8107 79.6273 34.232 79.4246 34.584C79.222 34.936 78.95 35.2027 78.6086 35.384C78.278 35.5653 77.91 35.656 77.5046 35.656C77.174 35.656 76.8486 35.5653 76.5286 35.384C76.2086 35.2027 75.942 34.9413 75.7286 34.6C75.526 34.248 75.4246 33.8213 75.4246 33.32C75.4246 32.8187 75.526 32.3973 75.7286 32.056C75.942 31.704 76.2086 31.4373 76.5286 31.256C76.8486 31.0747 77.174 30.984 77.5046 30.984C77.91 30.984 78.278 31.0747 78.6086 31.256C78.95 31.4373 79.222 31.704 79.4246 32.056C79.6273 32.408 79.7286 32.8293 79.7286 33.32ZM89.5474 31.224H91.4834C92.1874 31.224 92.806 31.1227 93.3394 30.92C93.8834 30.7173 94.3047 30.424 94.6034 30.04C94.9127 29.6453 95.0674 29.1707 95.0674 28.616C95.0674 27.976 94.9127 27.448 94.6034 27.032C94.3047 26.616 93.8834 26.3067 93.3394 26.104C92.806 25.9013 92.1874 25.8 91.4834 25.8H88.1074V37H91.6754C92.4647 37 93.158 36.888 93.7554 36.664C94.3634 36.4293 94.838 36.072 95.1794 35.592C95.5314 35.112 95.7074 34.504 95.7074 33.768C95.7074 33.2347 95.6007 32.776 95.3874 32.392C95.174 32.008 94.8754 31.6933 94.4914 31.448C94.118 31.2027 93.6914 31.0213 93.2114 30.904C92.7314 30.7867 92.2194 30.728 91.6754 30.728H89.5474V31.768H91.5634C91.8834 31.768 92.1767 31.8053 92.4434 31.88C92.71 31.944 92.9394 32.056 93.1314 32.216C93.334 32.3653 93.4887 32.5573 93.5954 32.792C93.7127 33.016 93.7714 33.2773 93.7714 33.576C93.7714 33.992 93.6754 34.3387 93.4834 34.616C93.2914 34.8933 93.03 35.1013 92.6994 35.24C92.3687 35.3787 91.99 35.448 91.5634 35.448H89.9954V27.352H91.3554C91.878 27.352 92.3047 27.48 92.6354 27.736C92.966 27.992 93.1314 28.3547 93.1314 28.824C93.1314 29.1333 93.0567 29.4 92.9074 29.624C92.758 29.8373 92.55 30.0027 92.2834 30.12C92.0167 30.2373 91.7074 30.296 91.3554 30.296H89.5474V31.224ZM99.2691 29.64H97.5571V37H99.2691V29.64ZM101.461 31.48L102.293 30.024C102.133 29.8213 101.936 29.6827 101.701 29.608C101.466 29.5227 101.216 29.48 100.949 29.48C100.576 29.48 100.213 29.6133 99.8611 29.88C99.5198 30.1467 99.2371 30.5093 99.0131 30.968C98.7998 31.416 98.6931 31.9333 98.6931 32.52L99.2691 32.856C99.2691 32.504 99.3065 32.2 99.3811 31.944C99.4665 31.6773 99.5998 31.4693 99.7811 31.32C99.9625 31.1707 100.197 31.096 100.485 31.096C100.698 31.096 100.874 31.128 101.013 31.192C101.152 31.256 101.301 31.352 101.461 31.48ZM102.685 33.32C102.685 34.0667 102.855 34.7333 103.197 35.32C103.549 35.896 104.023 36.3493 104.621 36.68C105.218 37 105.895 37.16 106.653 37.16C107.41 37.16 108.082 37 108.669 36.68C109.266 36.3493 109.741 35.896 110.093 35.32C110.445 34.7333 110.621 34.0667 110.621 33.32C110.621 32.5627 110.445 31.896 110.093 31.32C109.741 30.744 109.266 30.296 108.669 29.976C108.082 29.6453 107.41 29.48 106.653 29.48C105.895 29.48 105.218 29.6453 104.621 29.976C104.023 30.296 103.549 30.744 103.197 31.32C102.855 31.896 102.685 32.5627 102.685 33.32ZM104.461 33.32C104.461 32.8613 104.557 32.456 104.749 32.104C104.941 31.752 105.202 31.48 105.533 31.288C105.863 31.096 106.237 31 106.653 31C107.058 31 107.426 31.096 107.757 31.288C108.098 31.48 108.365 31.752 108.557 32.104C108.749 32.456 108.845 32.8613 108.845 33.32C108.845 33.7787 108.749 34.184 108.557 34.536C108.365 34.8773 108.098 35.1493 107.757 35.352C107.426 35.544 107.058 35.64 106.653 35.64C106.237 35.64 105.863 35.544 105.533 35.352C105.202 35.1493 104.941 34.8773 104.749 34.536C104.557 34.184 104.461 33.7787 104.461 33.32ZM110.922 29.64L114.362 37.528L116.57 32.552L118.874 37.528L122.314 29.64H120.442L118.714 34.04L116.554 29.08L114.522 34.024L112.794 29.64H110.922ZM123.753 34.584L122.745 35.592C122.958 35.8693 123.219 36.136 123.529 36.392C123.849 36.6373 124.217 36.84 124.633 37C125.059 37.1493 125.523 37.224 126.025 37.224C126.835 37.224 127.475 37.016 127.945 36.6C128.425 36.1733 128.665 35.6133 128.665 34.92C128.665 34.472 128.558 34.1093 128.345 33.832C128.142 33.5547 127.87 33.32 127.529 33.128C127.187 32.936 126.814 32.76 126.409 32.6C126.11 32.4827 125.838 32.3707 125.593 32.264C125.358 32.1573 125.166 32.04 125.017 31.912C124.878 31.7733 124.809 31.6187 124.809 31.448C124.809 31.2453 124.889 31.0907 125.049 30.984C125.209 30.8773 125.411 30.824 125.657 30.824C126.019 30.824 126.371 30.9147 126.713 31.096C127.054 31.2773 127.347 31.512 127.593 31.8L128.553 30.776C128.35 30.5307 128.105 30.312 127.817 30.12C127.529 29.928 127.203 29.7733 126.841 29.656C126.489 29.5387 126.11 29.48 125.705 29.48C125.257 29.48 124.835 29.5547 124.441 29.704C124.057 29.8427 123.747 30.0613 123.513 30.36C123.289 30.6587 123.177 31.032 123.177 31.48C123.177 31.9173 123.278 32.28 123.481 32.568C123.694 32.856 123.961 33.0907 124.281 33.272C124.611 33.4427 124.942 33.592 125.273 33.72C125.603 33.8373 125.891 33.9547 126.137 34.072C126.382 34.1787 126.574 34.312 126.713 34.472C126.851 34.6213 126.921 34.8027 126.921 35.016C126.921 35.2613 126.83 35.4533 126.649 35.592C126.478 35.7307 126.238 35.8 125.929 35.8C125.683 35.8 125.438 35.7573 125.193 35.672C124.947 35.576 124.702 35.4373 124.457 35.256C124.222 35.064 123.987 34.84 123.753 34.584ZM133.398 37.16C134.251 37.16 134.982 36.9947 135.59 36.664C136.198 36.3333 136.694 35.8373 137.078 35.176L135.59 34.568C135.355 34.9627 135.062 35.256 134.71 35.448C134.358 35.64 133.947 35.736 133.478 35.736C133.03 35.736 132.646 35.64 132.326 35.448C132.016 35.256 131.782 34.9787 131.622 34.616C131.462 34.2427 131.382 33.7893 131.382 33.256C131.392 32.7227 131.478 32.2747 131.638 31.912C131.798 31.5493 132.032 31.272 132.342 31.08C132.651 30.888 133.024 30.792 133.462 30.792C133.824 30.792 134.139 30.872 134.406 31.032C134.683 31.192 134.896 31.416 135.046 31.704C135.206 31.992 135.286 32.3333 135.286 32.728C135.286 32.8027 135.264 32.8987 135.222 33.016C135.19 33.1227 135.158 33.208 135.126 33.272L135.654 32.536H130.662V33.72H137.126C137.136 33.6773 137.142 33.608 137.142 33.512C137.152 33.416 137.158 33.3253 137.158 33.24C137.158 32.4507 137.008 31.7787 136.71 31.224C136.422 30.6587 136.006 30.2267 135.462 29.928C134.918 29.6293 134.256 29.48 133.478 29.48C132.699 29.48 132.022 29.64 131.446 29.96C130.87 30.2693 130.422 30.712 130.102 31.288C129.792 31.864 129.638 32.5413 129.638 33.32C129.638 34.088 129.792 34.76 130.102 35.336C130.411 35.912 130.848 36.36 131.414 36.68C131.99 37 132.651 37.16 133.398 37.16ZM140.519 29.64H138.807V37H140.519V29.64ZM142.711 31.48L143.543 30.024C143.383 29.8213 143.186 29.6827 142.951 29.608C142.716 29.5227 142.466 29.48 142.199 29.48C141.826 29.48 141.463 29.6133 141.111 29.88C140.77 30.1467 140.487 30.5093 140.263 30.968C140.05 31.416 139.943 31.9333 139.943 32.52L140.519 32.856C140.519 32.504 140.556 32.2 140.631 31.944C140.716 31.6773 140.85 31.4693 141.031 31.32C141.212 31.1707 141.447 31.096 141.735 31.096C141.948 31.096 142.124 31.128 142.263 31.192C142.402 31.256 142.551 31.352 142.711 31.48Z" fill="white"/>
<path d="M50.296 16.56H53.256L53.072 15.76H50.472L50.296 16.56ZM51.76 13.984L52.648 16.064L52.672 16.296L53.432 18H54.496L51.76 12.088L49.024 18H50.088L50.864 16.248L50.88 16.04L51.76 13.984ZM56.6066 16.336L54.9586 12.4H53.8706L56.6066 18.312L59.3426 12.4H58.2546L56.6066 16.336ZM59.9891 16.56H62.9491L62.7651 15.76H60.1651L59.9891 16.56ZM61.4531 13.984L62.3411 16.064L62.3651 16.296L63.1251 18H64.1891L61.4531 12.088L58.7171 18H59.7811L60.5571 16.248L60.5731 16.04L61.4531 13.984ZM64.9606 12.4V18H65.9126V12.4H64.9606ZM67.2837 12.4V18H70.4517V17.152H68.2277V12.4H67.2837ZM72.1694 16.56H75.1294L74.9454 15.76H72.3454L72.1694 16.56ZM73.6334 13.984L74.5214 16.064L74.5454 16.296L75.3054 18H76.3694L73.6334 12.088L70.8974 18H71.9614L72.7374 16.248L72.7534 16.04L73.6334 13.984ZM77.8609 15.112H78.8289C79.1809 15.112 79.4902 15.0613 79.7569 14.96C80.0289 14.8587 80.2395 14.712 80.3889 14.52C80.5435 14.3227 80.6209 14.0853 80.6209 13.808C80.6209 13.488 80.5435 13.224 80.3889 13.016C80.2395 12.808 80.0289 12.6533 79.7569 12.552C79.4902 12.4507 79.1809 12.4 78.8289 12.4H77.1409V18H78.9249C79.3195 18 79.6662 17.944 79.9649 17.832C80.2689 17.7147 80.5062 17.536 80.6769 17.296C80.8529 17.056 80.9409 16.752 80.9409 16.384C80.9409 16.1173 80.8875 15.888 80.7809 15.696C80.6742 15.504 80.5249 15.3467 80.3329 15.224C80.1462 15.1013 79.9329 15.0107 79.6929 14.952C79.4529 14.8933 79.1969 14.864 78.9249 14.864H77.8609V15.384H78.8689C79.0289 15.384 79.1755 15.4027 79.3089 15.44C79.4422 15.472 79.5569 15.528 79.6529 15.608C79.7542 15.6827 79.8315 15.7787 79.8849 15.896C79.9435 16.008 79.9729 16.1387 79.9729 16.288C79.9729 16.496 79.9249 16.6693 79.8289 16.808C79.7329 16.9467 79.6022 17.0507 79.4369 17.12C79.2715 17.1893 79.0822 17.224 78.8689 17.224H78.0849V13.176H78.7649C79.0262 13.176 79.2395 13.24 79.4049 13.368C79.5702 13.496 79.6529 13.6773 79.6529 13.912C79.6529 14.0667 79.6155 14.2 79.5409 14.312C79.4662 14.4187 79.3622 14.5013 79.2289 14.56C79.0955 14.6187 78.9409 14.648 78.7649 14.648H77.8609V15.112ZM82.0578 12.4V18H85.2258V17.152H83.0018V12.4H82.0578ZM86.6133 18H89.4373V17.168H86.6133V18ZM86.6133 13.232H89.4373V12.4H86.6133V13.232ZM86.6133 15.408H89.2773V14.592H86.6133V15.408ZM86.0293 12.4V18H86.9573V12.4H86.0293ZM93.9181 15.2C93.9181 14.816 93.9981 14.4747 94.1581 14.176C94.3234 13.872 94.5501 13.6347 94.8381 13.464C95.1261 13.2933 95.4541 13.208 95.8221 13.208C96.2007 13.208 96.5314 13.2933 96.8141 13.464C97.1021 13.6347 97.3261 13.872 97.4861 14.176C97.6461 14.4747 97.7261 14.816 97.7261 15.2C97.7261 15.584 97.6434 15.928 97.4781 16.232C97.3181 16.5307 97.0941 16.7653 96.8061 16.936C96.5234 17.1067 96.1954 17.192 95.8221 17.192C95.4541 17.192 95.1261 17.1067 94.8381 16.936C94.5501 16.7653 94.3234 16.5307 94.1581 16.232C93.9981 15.928 93.9181 15.584 93.9181 15.2ZM92.9181 15.2C92.9181 15.616 92.9901 16.0027 93.1341 16.36C93.2781 16.7173 93.4781 17.0267 93.7341 17.288C93.9954 17.5493 94.3047 17.7547 94.6621 17.904C95.0194 18.048 95.4061 18.12 95.8221 18.12C96.2434 18.12 96.6301 18.048 96.9821 17.904C97.3394 17.7547 97.6487 17.5493 97.9101 17.288C98.1714 17.0267 98.3741 16.7173 98.5181 16.36C98.6621 16.0027 98.7341 15.616 98.7341 15.2C98.7341 14.7787 98.6621 14.392 98.5181 14.04C98.3741 13.688 98.1687 13.384 97.9021 13.128C97.6407 12.8667 97.3341 12.664 96.9821 12.52C96.6301 12.376 96.2434 12.304 95.8221 12.304C95.4114 12.304 95.0274 12.376 94.6701 12.52C94.3181 12.664 94.0087 12.8667 93.7421 13.128C93.4807 13.384 93.2781 13.688 93.1341 14.04C92.9901 14.392 92.9181 14.7787 92.9181 15.2ZM103.86 12.4V16.16L99.7721 12.12V18H100.7V14.24L104.788 18.28V12.4H103.86Z" fill="white"/>
</svg>
