<svg width="120" height="120" viewBox="0 0 120 120" fill="none" xmlns="http://www.w3.org/2000/svg">
<path d="M88.3996 60.6731C88.4985 59.6279 88.5644 58.5827 88.5644 57.5211C88.5644 40.5197 74.6076 26.6704 57.4377 26.6704C40.2842 26.6867 26.3275 40.5197 26.3275 57.5374C26.3275 74.5388 40.2842 88.3881 57.4542 88.3881C58.3769 88.3881 59.2997 88.3391 60.2225 88.2738C61.9407 91.7824 64.6188 94.742 67.9517 96.8153C71.2846 98.8885 75.1382 99.992 79.0731 100C90.6076 100 100 90.6909 100 79.2587C99.9982 75.3987 98.9119 71.6155 96.8631 68.3329C94.8142 65.0503 91.8836 62.398 88.3996 60.6731ZM35.242 75.7147C31.2137 70.9038 28.8972 64.9114 28.6509 58.6643H39.1967C39.312 63.0739 40.0371 67.2222 41.3223 70.9621C39.1027 72.2876 37.0599 73.8843 35.242 75.7147ZM41.3223 44.0801C39.985 48.0479 39.2681 52.1951 39.1967 56.3779H28.6509C28.9002 50.1315 31.2163 44.1399 35.242 39.3275C37.0513 41.1674 39.0954 42.7652 41.3223 44.0801ZM79.5675 39.2622C83.6299 44.0838 85.9704 50.1012 86.2245 56.3779H75.6787C75.5633 51.9356 74.8383 47.771 73.5366 44.0147C75.7407 42.6885 77.767 41.0917 79.5675 39.2622ZM73.3718 56.3942H58.5911V48.457C63.077 48.2969 67.474 47.1712 71.4768 45.158C72.6614 48.7909 73.2999 52.5769 73.3718 56.3942ZM58.5911 46.1542V29.3162C64.0288 32.1742 68.1648 36.9431 70.6694 43.0022C66.926 44.92 62.802 45.9962 58.5911 46.1542ZM56.2842 46.1542C52.0716 45.9995 47.9439 44.9349 44.1895 43.0348C46.6941 36.9594 50.8301 32.1579 56.2842 29.2998V46.1542ZM56.2842 48.457V56.3942H41.5036C41.5715 52.5939 42.2045 48.8242 43.3821 45.207C47.3997 47.1899 51.7989 48.298 56.2842 48.457ZM41.5036 58.6807H56.2842V66.6179C51.7986 66.7748 47.399 67.883 43.3821 69.8679C42.223 66.2462 41.5905 62.4792 41.5036 58.6807ZM58.5911 83.5866C58.7285 84.221 58.899 84.8479 59.102 85.4647C58.9372 85.5627 58.7724 85.6444 58.5911 85.7424V83.5866ZM56.2842 68.9043V85.7587C50.8301 82.9006 46.6777 78.0991 44.1895 72.0237C47.9446 70.1255 52.0719 69.061 56.2842 68.9043ZM58.5911 74.8654V68.9043C59.3326 68.937 60.0742 68.986 60.8157 69.0677C59.7837 70.8781 59.0337 72.8328 58.5911 74.8654ZM62.9413 65.9973C62.7436 66.2259 62.5623 66.4546 62.3811 66.6832C62.3151 66.7649 62.2657 66.8465 62.1998 66.9282C61.0042 66.7484 59.7995 66.6339 58.5911 66.5852V58.6807H73.3718C73.3718 58.8766 73.3553 59.0889 73.3553 59.2849C73.3223 59.2849 73.3059 59.3013 73.2729 59.3013C69.2234 60.4427 65.62 62.7781 62.9413 65.9973ZM75.6787 58.6807H76.3378C76.1236 58.7133 75.8929 58.746 75.6787 58.7786V58.6807ZM86.2245 58.6807C86.208 59.0236 86.1916 59.3829 86.1586 59.7259C84.7476 59.215 83.2827 58.8643 81.792 58.6807H86.2245ZM78.0185 37.5637C76.4295 39.2023 74.6418 40.6396 72.6962 41.8426C70.5705 36.8288 67.3738 32.6152 63.2873 29.5611C68.89 30.7212 74.0178 33.5068 78.0185 37.5637ZM51.6045 29.5611C47.5015 32.6315 44.2884 36.8614 42.1627 41.9079C40.2057 40.7063 38.4021 39.2751 36.7909 37.6454C40.8008 33.5415 45.9614 30.7252 51.6045 29.5611ZM36.7909 77.4132C38.3978 75.7787 40.202 74.347 42.1627 73.1506C44.2884 78.1971 47.4851 82.427 51.6045 85.4974C45.9589 84.3402 40.7964 81.5228 36.7909 77.4132ZM79.0566 97.6972C75.5066 97.69 72.0322 96.6798 69.0408 94.7852C66.0493 92.8905 63.6648 90.1899 62.1668 86.9999C61.9507 86.5473 61.7582 86.084 61.5901 85.6117C61.5242 85.4484 61.4748 85.2688 61.4089 85.1054C60.4402 82.2538 60.1905 79.2106 60.6817 76.2413C61.1729 73.2721 62.3899 70.4672 64.2266 68.0714C64.3914 67.8591 64.5561 67.6631 64.7209 67.4508C66.7233 65.0592 69.3025 63.2074 72.2195 62.067C75.1364 60.9267 78.2967 60.5348 81.4072 60.9277C84.5176 61.3205 87.4777 62.4855 90.0129 64.3144C92.5481 66.1433 94.5763 68.5771 95.9095 71.39C97.2428 74.2029 97.8378 77.304 97.6396 80.4056C97.4413 83.5072 96.4561 86.509 94.7753 89.1327C93.0946 91.7564 90.7726 93.9169 88.0248 95.4141C85.277 96.9113 82.1923 97.6966 79.0566 97.6972ZM22.3069 57.7661C22.3069 57.2761 22.3234 56.7698 22.3563 56.2636L20.0494 56.1329C20.0165 56.6882 20 57.2271 20 57.7661C20 58.06 20 58.3377 20.0165 58.6317L22.3234 58.5663C22.3069 58.2887 22.3069 58.0274 22.3069 57.7661ZM22.62 61.653L20.346 61.996C20.4943 62.9922 20.725 64.0701 21.0051 65.2787L23.2461 64.7561C22.966 63.6128 22.7683 62.5839 22.62 61.653ZM26.6076 73.6569L24.5644 74.7184C25.0917 75.7147 25.6519 76.6782 26.2616 77.6255L28.206 76.4006C27.6292 75.5187 27.102 74.5878 26.6076 73.6569ZM24.1195 67.8264L21.9279 68.5287C22.2739 69.5903 22.6694 70.6518 23.1143 71.6807L25.24 70.7825C24.8115 69.8189 24.449 68.8227 24.1195 67.8264ZM28.206 80.3856C28.898 81.2838 29.6231 82.1494 30.3811 82.966L32.0947 81.4308C31.3862 80.6469 30.6941 79.8303 30.0515 78.9974L28.206 80.3856Z" fill="url(#paint0_linear_1221_5270)"/>
<path d="M55.9053 92.7324C52.1299 92.5354 48.4121 91.73 44.898 90.3479C43.4038 89.7571 41.9554 89.0585 40.5644 88.2575C40.07 87.9798 39.5757 87.6695 39.0978 87.3592C38.8507 87.2122 38.62 87.0489 38.3893 86.8856C37.3513 86.18 36.3503 85.4223 35.3903 84.6155L33.8908 86.3466C34.9086 87.2127 35.9759 88.0197 37.0875 88.7637C37.3347 88.9271 37.5984 89.1067 37.8455 89.27C38.3563 89.5967 38.8836 89.9233 39.4274 90.2173C40.9173 91.0673 42.4644 91.8149 44.0577 92.4547C47.8018 93.9332 51.765 94.7938 55.7899 95.0025C56.5479 95.0515 57.6519 95.0841 58.5582 95.0841H59.0196L58.9866 92.7977C58.0309 92.814 56.7456 92.7814 55.9053 92.7324ZM27.6952 37.4004H33.001V35.1139H30.4964C33.6422 31.5848 37.4044 28.6471 41.6025 26.4418C47.3862 23.4041 53.7137 21.9832 59.8929 22.3425C71.8888 23.0121 79.6498 29.0385 84.0494 33.9707C89.6354 40.2421 93.0463 48.4406 93.4089 56.4595C93.4583 57.4884 93.4418 58.5337 93.3924 59.5299L95.6993 59.6606C95.7626 58.5565 95.7681 57.4499 95.7158 56.3452C95.3368 47.82 91.7116 39.0989 85.7796 32.4519C82.6678 28.9352 78.9101 26.0366 74.7065 23.9103C70.1422 21.6273 65.1471 20.3145 60.0412 20.0561C53.4336 19.6804 46.6941 21.1993 40.5314 24.4166C36.1272 26.7436 32.1722 29.8231 28.8486 33.5134V30.9493H26.5417V36.2572C26.5408 36.4075 26.57 36.5566 26.6276 36.6957C26.6852 36.8349 26.7702 36.9613 26.8774 37.0676C26.9847 37.174 27.1123 37.2581 27.2526 37.3153C27.393 37.3724 27.5434 37.4013 27.6952 37.4004Z" fill="url(#paint1_linear_1221_5270)"/>
<path d="M79.1857 79.5091H78.2025C77.5507 79.5091 76.9255 79.2524 76.4645 78.7956C76.0036 78.3387 75.7446 77.719 75.7446 77.0729C75.7446 76.4268 76.0036 75.8072 76.4645 75.3503C76.9255 74.8934 77.5507 74.6368 78.2025 74.6368H82.6268C82.8876 74.6368 83.1377 74.5341 83.3221 74.3514C83.5064 74.1686 83.61 73.9208 83.61 73.6623C83.61 73.4039 83.5064 73.156 83.3221 72.9733C83.1377 72.7905 82.8876 72.6879 82.6268 72.6879H80.6605V69.7645C80.6605 69.506 80.5569 69.2582 80.3725 69.0754C80.1881 68.8927 79.9381 68.79 79.6773 68.79C79.4165 68.79 79.1665 68.8927 78.9821 69.0754C78.7977 69.2582 78.6941 69.506 78.6941 69.7645V72.6879H78.2025C77.0291 72.6879 75.9038 73.1499 75.0741 73.9722C74.2444 74.7946 73.7782 75.9099 73.7782 77.0729C73.7782 78.2359 74.2444 79.3513 75.0741 80.1736C75.9038 80.996 77.0291 81.458 78.2025 81.458H79.1857C79.8376 81.458 80.4628 81.7147 80.9238 82.1715C81.3847 82.6284 81.6437 83.2481 81.6437 83.8942C81.6437 84.5403 81.3847 85.1599 80.9238 85.6168C80.4628 86.0736 79.8376 86.3303 79.1857 86.3303H74.7614C74.5007 86.3303 74.2506 86.433 74.0662 86.6157C73.8818 86.7985 73.7782 87.0463 73.7782 87.3048C73.7782 87.5632 73.8818 87.8111 74.0662 87.9938C74.2506 88.1766 74.5007 88.2792 74.7614 88.2792H76.7278V91.2026C76.7278 91.4611 76.8314 91.7089 77.0157 91.8917C77.2001 92.0744 77.4502 92.1771 77.7109 92.1771C77.9717 92.1771 78.2218 92.0744 78.4062 91.8917C78.5905 91.7089 78.6941 91.4611 78.6941 91.2026V88.2792H79.1857C80.3591 88.2792 81.4845 87.8172 82.3142 86.9949C83.1439 86.1725 83.61 85.0572 83.61 83.8942C83.61 82.7312 83.1439 81.6158 82.3142 80.7934C81.4845 79.9711 80.3591 79.5091 79.1857 79.5091Z" fill="url(#paint2_linear_1221_5270)"/>
<defs>
<linearGradient id="paint0_linear_1221_5270" x1="0.820512" y1="59.9959" x2="110.667" y2="59.9959" gradientUnits="userSpaceOnUse">
<stop stop-color="#14DFBE"/>
<stop offset="0.513258" stop-color="#1AD6CB"/>
<stop offset="1" stop-color="#2EB8F7"/>
</linearGradient>
<linearGradient id="paint1_linear_1221_5270" x1="0.820512" y1="59.9959" x2="110.667" y2="59.9959" gradientUnits="userSpaceOnUse">
<stop stop-color="#14DFBE"/>
<stop offset="0.513258" stop-color="#1AD6CB"/>
<stop offset="1" stop-color="#2EB8F7"/>
</linearGradient>
<linearGradient id="paint2_linear_1221_5270" x1="0.820512" y1="59.9959" x2="110.667" y2="59.9959" gradientUnits="userSpaceOnUse">
<stop stop-color="#14DFBE"/>
<stop offset="0.513258" stop-color="#1AD6CB"/>
<stop offset="1" stop-color="#2EB8F7"/>
</linearGradient>
</defs>
</svg>
