<svg width="120" height="120" viewBox="0 0 120 120" fill="none" xmlns="http://www.w3.org/2000/svg">
<path d="M34.1892 30.5718H28.6583C24.7466 30.5718 20.9951 29.0113 18.2291 26.2336C15.4631 23.456 13.9092 19.6887 13.9092 15.7605C13.9092 15.2694 14.1034 14.7985 14.4492 14.4513C14.7949 14.1041 15.2639 13.9091 15.7528 13.9091H21.2837C25.1954 13.9091 28.9469 15.4695 31.7129 18.2472C34.4789 21.0248 36.0328 24.7922 36.0328 28.7204C36.0328 29.2114 35.8386 29.6823 35.4928 30.0295C35.1471 30.3767 34.6781 30.5718 34.1892 30.5718ZM17.7439 17.6119C18.1798 20.2016 19.5154 22.5524 21.5134 24.247C23.5115 25.9417 26.0429 26.8707 28.6583 26.8689H32.1981C31.7622 24.2793 30.4266 21.9285 28.4286 20.2338C26.4305 18.5391 23.8991 17.6102 21.2837 17.6119H17.7439Z" fill="url(#paint0_linear_1221_5263)"/>
<path d="M39.7201 36.126H34.1892C33.7002 36.126 33.2313 35.9309 32.8855 35.5837C32.5398 35.2365 32.3455 34.7656 32.3455 34.2746C32.3455 30.3464 33.8995 26.5791 36.6655 23.8014C39.4314 21.0238 43.1829 19.4633 47.0946 19.4633H52.6255C53.1145 19.4633 53.5834 19.6584 53.9292 20.0056C54.2749 20.3528 54.4692 20.8237 54.4692 21.3147C54.4692 25.2429 52.9153 29.0102 50.1493 31.7879C47.3833 34.5655 43.6318 36.126 39.7201 36.126ZM36.1803 32.4232H39.7201C42.3355 32.4249 44.8668 31.496 46.8649 29.8013C48.863 28.1066 50.1985 25.7558 50.6344 23.1661H47.0946C44.4793 23.1644 41.9479 24.0933 39.9498 25.788C37.9517 27.4827 36.6162 29.8335 36.1803 32.4232Z" fill="url(#paint1_linear_1221_5263)"/>
<path d="M34.1892 75.0057C33.7002 75.0057 33.2313 74.8106 32.8855 74.4634C32.5398 74.1162 32.3455 73.6453 32.3455 73.1542V26.8689C32.3455 26.3779 32.5398 25.907 32.8855 25.5598C33.2313 25.2126 33.7002 25.0175 34.1892 25.0175C34.6781 25.0175 35.1471 25.2126 35.4928 25.5598C35.8386 25.907 36.0328 26.3779 36.0328 26.8689V73.1542C36.0328 73.6453 35.8386 74.1162 35.4928 74.4634C35.1471 74.8106 34.6781 75.0057 34.1892 75.0057Z" fill="url(#paint2_linear_1221_5263)"/>
<path d="M34.1892 106.091C31.2742 106.09 28.425 105.221 26.0013 103.594C23.5776 101.968 21.6883 99.6568 20.5717 96.9527C19.4552 94.2487 19.1616 91.273 19.728 88.4015C20.2945 85.5301 21.6955 82.8915 23.7542 80.8191L32.8802 71.562C33.0516 71.3885 33.2555 71.2508 33.4802 71.1568C33.7048 71.0628 33.9458 71.0144 34.1892 71.0144C34.4326 71.0144 34.6735 71.0628 34.8982 71.1568C35.1229 71.2508 35.3268 71.3885 35.4982 71.562L44.6242 80.8191C47.3881 83.5965 48.9407 87.3623 48.9407 91.2888C48.9407 95.2153 47.3881 98.9812 44.6242 101.759C43.2534 103.134 41.6263 104.224 39.8359 104.967C38.0454 105.711 36.1266 106.092 34.1892 106.091ZM34.1892 75.5796L26.3722 83.4296C24.8238 84.9826 23.7689 86.9619 23.3409 89.1171C22.913 91.2723 23.1312 93.5066 23.9681 95.5372C24.8049 97.5678 26.2227 99.3035 28.0421 100.525C29.8615 101.746 32.0008 102.398 34.1892 102.398C36.3776 102.398 38.5168 101.746 40.3362 100.525C42.1556 99.3035 43.5734 97.5678 44.4103 95.5372C45.2471 93.5066 45.4654 91.2723 45.0374 89.1171C44.6095 86.9619 43.5546 84.9826 42.0062 83.4296L34.1892 75.5796Z" fill="url(#paint3_linear_1221_5263)"/>
<path d="M35.111 97.2226H30.5019C30.0129 97.2226 29.544 97.0275 29.1983 96.6803C28.8525 96.3331 28.6583 95.8622 28.6583 95.3712C28.6583 94.8802 28.8525 94.4092 29.1983 94.062C29.544 93.7148 30.0129 93.5198 30.5019 93.5198H35.111C35.3555 93.5198 35.5899 93.4222 35.7628 93.2486C35.9357 93.075 36.0328 92.8396 36.0328 92.5941C36.0328 92.3486 35.9357 92.1131 35.7628 91.9395C35.5899 91.7659 35.3555 91.6684 35.111 91.6684H33.2674C32.045 91.6684 30.8726 91.1807 30.0082 90.3127C29.1439 89.4447 28.6583 88.2674 28.6583 87.0398C28.6583 85.8123 29.1439 84.635 30.0082 83.767C30.8726 82.8989 32.045 82.4113 33.2674 82.4113H37.8765C38.3654 82.4113 38.8344 82.6064 39.1801 82.9536C39.5258 83.3008 39.7201 83.7717 39.7201 84.2627C39.7201 84.7537 39.5258 85.2247 39.1801 85.5719C38.8344 85.9191 38.3654 86.1141 37.8765 86.1141H33.2674C33.0229 86.1141 32.7884 86.2117 32.6155 86.3853C32.4427 86.5589 32.3455 86.7943 32.3455 87.0398C32.3455 87.2853 32.4427 87.5208 32.6155 87.6944C32.7884 87.868 33.0229 87.9655 33.2674 87.9655H35.111C36.3334 87.9655 37.5057 88.4532 38.3701 89.3212C39.2345 90.1892 39.7201 91.3665 39.7201 92.5941C39.7201 93.8216 39.2345 94.9989 38.3701 95.8669C37.5057 96.735 36.3334 97.2226 35.111 97.2226Z" fill="url(#paint4_linear_1221_5263)"/>
<path d="M34.1892 86.1141C33.7002 86.1141 33.2313 85.9191 32.8855 85.5719C32.5398 85.2247 32.3455 84.7537 32.3455 84.2627V82.4113C32.3455 81.9203 32.5398 81.4494 32.8855 81.1022C33.2313 80.755 33.7002 80.5599 34.1892 80.5599C34.6781 80.5599 35.1471 80.755 35.4928 81.1022C35.8386 81.4494 36.0328 81.9203 36.0328 82.4113V84.2627C36.0328 84.7537 35.8386 85.2247 35.4928 85.5719C35.1471 85.9191 34.6781 86.1141 34.1892 86.1141ZM34.1892 99.074C33.7002 99.074 33.2313 98.879 32.8855 98.5317C32.5398 98.1845 32.3455 97.7136 32.3455 97.2226V95.3712C32.3455 94.8802 32.5398 94.4092 32.8855 94.062C33.2313 93.7148 33.7002 93.5198 34.1892 93.5198C34.6781 93.5198 35.1471 93.7148 35.4928 94.062C35.8386 94.4092 36.0328 94.8802 36.0328 95.3712V97.2226C36.0328 97.7136 35.8386 98.1845 35.4928 98.5317C35.1471 98.879 34.6781 99.074 34.1892 99.074ZM39.7201 69.4514C39.4775 69.4528 39.2369 69.4061 39.0123 69.314C38.7877 69.2219 38.5834 69.0861 38.4111 68.9145C38.2383 68.7424 38.1011 68.5376 38.0075 68.312C37.9139 68.0864 37.8658 67.8444 37.8658 67.6C37.8658 67.3556 37.9139 67.1136 38.0075 66.888C38.1011 66.6624 38.2383 66.4576 38.4111 66.2855L60.5347 44.0686C60.7061 43.895 60.91 43.7573 61.1347 43.6633C61.3594 43.5693 61.6003 43.5209 61.8437 43.5209C62.0871 43.5209 62.3281 43.5693 62.5527 43.6633C62.7774 43.7573 62.9813 43.895 63.1527 44.0686L72.9055 53.8255L97.3706 27.4614C97.7116 27.1409 98.1611 26.9624 98.6282 26.9618C99.0953 26.9613 99.5452 27.1388 99.8869 27.4585C100.229 27.7782 100.437 28.2163 100.469 28.6842C100.502 29.1521 100.356 29.615 100.062 29.9793L74.2514 57.7505C74.0795 57.9366 73.8713 58.0853 73.6398 58.1872C73.4083 58.2891 73.1583 58.3421 72.9055 58.3429C72.4046 58.3456 71.9222 58.1531 71.5597 57.806L61.8437 47.9936L41.0291 68.9145C40.8568 69.0861 40.6525 69.2219 40.4279 69.314C40.2032 69.4061 39.9627 69.4528 39.7201 69.4514Z" fill="url(#paint5_linear_1221_5263)"/>
<path d="M98.7164 43.5317C98.2275 43.5317 97.7585 43.3366 97.4128 42.9894C97.067 42.6422 96.8728 42.1713 96.8728 41.6802V30.5718H85.811C85.322 30.5718 84.8531 30.3767 84.5073 30.0295C84.1616 29.6823 83.9674 29.2114 83.9674 28.7204C83.9674 28.2293 84.1616 27.7584 84.5073 27.4112C84.8531 27.064 85.322 26.8689 85.811 26.8689H98.7164C99.2054 26.8689 99.6743 27.064 100.02 27.4112C100.366 27.7584 100.56 28.2293 100.56 28.7204V41.6802C100.56 42.1713 100.366 42.6422 100.02 42.9894C99.6743 43.3366 99.2054 43.5317 98.7164 43.5317ZM104.247 100.925H50.7819C50.2929 100.925 49.824 100.73 49.4783 100.383C49.1325 100.036 48.9383 99.565 48.9383 99.074C48.9383 98.583 49.1325 98.1121 49.4783 97.7649C49.824 97.4177 50.2929 97.2226 50.7819 97.2226H104.247C104.736 97.2226 105.205 97.4177 105.551 97.7649C105.897 98.1121 106.091 98.583 106.091 99.074C106.091 99.565 105.897 100.036 105.551 100.383C105.205 100.73 104.736 100.925 104.247 100.925Z" fill="url(#paint6_linear_1221_5263)"/>
<path d="M87.6546 99.074C87.1657 99.074 86.6967 98.879 86.351 98.5317C86.0052 98.1845 85.811 97.7136 85.811 97.2226V66.0263C85.811 65.5353 86.0052 65.0644 86.351 64.7172C86.6967 64.37 87.1657 64.1749 87.6546 64.1749C88.1436 64.1749 88.6125 64.37 88.9583 64.7172C89.304 65.0644 89.4983 65.5353 89.4983 66.0263V97.2226C89.4983 97.7136 89.304 98.1845 88.9583 98.5317C88.6125 98.879 88.1436 99.074 87.6546 99.074ZM87.6546 60.1944C87.1657 60.1944 86.6967 59.9993 86.351 59.6521C86.0052 59.3049 85.811 58.834 85.811 58.3429V54.6401C85.811 54.1491 86.0052 53.6782 86.351 53.331C86.6967 52.9838 87.1657 52.7887 87.6546 52.7887C88.1436 52.7887 88.6125 52.9838 88.9583 53.331C89.304 53.6782 89.4983 54.1491 89.4983 54.6401V58.3429C89.4983 58.834 89.304 59.3049 88.9583 59.6521C88.6125 59.9993 88.1436 60.1944 87.6546 60.1944ZM72.9055 100.925C72.4166 100.925 71.9476 100.73 71.6019 100.383C71.2561 100.036 71.0619 99.565 71.0619 99.074V80.5599C71.0619 80.0689 71.2561 79.598 71.6019 79.2507C71.9476 78.9035 72.4166 78.7085 72.9055 78.7085C73.3945 78.7085 73.8634 78.9035 74.2092 79.2507C74.5549 79.598 74.7492 80.0689 74.7492 80.5599V99.074C74.7492 99.565 74.5549 100.036 74.2092 100.383C73.8634 100.73 73.3945 100.925 72.9055 100.925ZM72.9055 75.0057C72.4166 75.0057 71.9476 74.8106 71.6019 74.4634C71.2561 74.1162 71.0619 73.6453 71.0619 73.1542V69.4514C71.0619 68.9604 71.2561 68.4895 71.6019 68.1423C71.9476 67.7951 72.4166 67.6 72.9055 67.6C73.3945 67.6 73.8634 67.7951 74.2092 68.1423C74.5549 68.4895 74.7492 68.9604 74.7492 69.4514V73.1542C74.7492 73.6453 74.5549 74.1162 74.2092 74.4634C73.8634 74.8106 73.3945 75.0057 72.9055 75.0057ZM58.1564 100.925C57.6675 100.925 57.1986 100.73 56.8528 100.383C56.5071 100.036 56.3128 99.565 56.3128 99.074V89.817C56.3128 89.3259 56.5071 88.855 56.8528 88.5078C57.1986 88.1606 57.6675 87.9655 58.1564 87.9655C58.6454 87.9655 59.1143 88.1606 59.4601 88.5078C59.8058 88.855 60.0001 89.3259 60.0001 89.817V99.074C60.0001 99.565 59.8058 100.036 59.4601 100.383C59.1143 100.73 58.6454 100.925 58.1564 100.925ZM58.1564 84.2627C57.6675 84.2627 57.1986 84.0677 56.8528 83.7205C56.5071 83.3732 56.3128 82.9023 56.3128 82.4113V78.7085C56.3128 78.2175 56.5071 77.7465 56.8528 77.3993C57.1986 77.0521 57.6675 76.8571 58.1564 76.8571C58.6454 76.8571 59.1143 77.0521 59.4601 77.3993C59.8058 77.7465 60.0001 78.2175 60.0001 78.7085V82.4113C60.0001 82.9023 59.8058 83.3732 59.4601 83.7205C59.1143 84.0677 58.6454 84.2627 58.1564 84.2627Z" fill="url(#paint7_linear_1221_5263)"/>
<defs>
<linearGradient id="paint0_linear_1221_5263" x1="-8.19082" y1="59.9953" x2="118.382" y2="59.9953" gradientUnits="userSpaceOnUse">
<stop stop-color="#14DFBE"/>
<stop offset="0.513258" stop-color="#1AD6CB"/>
<stop offset="1" stop-color="#2EB8F7"/>
</linearGradient>
<linearGradient id="paint1_linear_1221_5263" x1="-8.19082" y1="59.9953" x2="118.382" y2="59.9953" gradientUnits="userSpaceOnUse">
<stop stop-color="#14DFBE"/>
<stop offset="0.513258" stop-color="#1AD6CB"/>
<stop offset="1" stop-color="#2EB8F7"/>
</linearGradient>
<linearGradient id="paint2_linear_1221_5263" x1="-8.19082" y1="59.9953" x2="118.382" y2="59.9953" gradientUnits="userSpaceOnUse">
<stop stop-color="#14DFBE"/>
<stop offset="0.513258" stop-color="#1AD6CB"/>
<stop offset="1" stop-color="#2EB8F7"/>
</linearGradient>
<linearGradient id="paint3_linear_1221_5263" x1="-8.19082" y1="59.9953" x2="118.382" y2="59.9953" gradientUnits="userSpaceOnUse">
<stop stop-color="#14DFBE"/>
<stop offset="0.513258" stop-color="#1AD6CB"/>
<stop offset="1" stop-color="#2EB8F7"/>
</linearGradient>
<linearGradient id="paint4_linear_1221_5263" x1="-8.19082" y1="59.9953" x2="118.382" y2="59.9953" gradientUnits="userSpaceOnUse">
<stop stop-color="#14DFBE"/>
<stop offset="0.513258" stop-color="#1AD6CB"/>
<stop offset="1" stop-color="#2EB8F7"/>
</linearGradient>
<linearGradient id="paint5_linear_1221_5263" x1="-8.19082" y1="59.9953" x2="118.382" y2="59.9953" gradientUnits="userSpaceOnUse">
<stop stop-color="#14DFBE"/>
<stop offset="0.513258" stop-color="#1AD6CB"/>
<stop offset="1" stop-color="#2EB8F7"/>
</linearGradient>
<linearGradient id="paint6_linear_1221_5263" x1="-8.19082" y1="59.9953" x2="118.382" y2="59.9953" gradientUnits="userSpaceOnUse">
<stop stop-color="#14DFBE"/>
<stop offset="0.513258" stop-color="#1AD6CB"/>
<stop offset="1" stop-color="#2EB8F7"/>
</linearGradient>
<linearGradient id="paint7_linear_1221_5263" x1="-8.19082" y1="59.9953" x2="118.382" y2="59.9953" gradientUnits="userSpaceOnUse">
<stop stop-color="#14DFBE"/>
<stop offset="0.513258" stop-color="#1AD6CB"/>
<stop offset="1" stop-color="#2EB8F7"/>
</linearGradient>
</defs>
</svg>
