<svg width="120" height="120" viewBox="0 0 120 120" fill="none" xmlns="http://www.w3.org/2000/svg">
<path d="M46.9436 71.4374H38.0173C37.7927 71.4366 37.5745 71.3624 37.396 71.2262C37.2175 71.09 37.0885 70.8993 37.0286 70.6831C35.9251 66.7312 35.3661 62.6475 35.3669 58.5448V42.1891C35.3669 41.9163 35.4754 41.6546 35.6686 41.4617C35.8617 41.2688 36.1237 41.1604 36.3969 41.1604C39.261 41.1477 42.0036 40.0029 44.025 37.9764C46.0464 35.9498 47.1822 33.2063 47.1839 30.3457C47.1839 30.0729 47.2925 29.8113 47.4856 29.6184C47.6788 29.4254 47.9407 29.3171 48.2139 29.3171H63.5671C63.749 29.3162 63.9277 29.3641 64.0847 29.4558C64.2417 29.5475 64.3712 29.6796 64.4597 29.8383C64.5507 29.9957 64.5986 30.1742 64.5986 30.356C64.5986 30.5378 64.5507 30.7164 64.4597 30.8738C62.7894 33.6585 61.9089 36.8445 61.9123 40.0906V40.8724C61.9179 41.0101 61.8952 41.1474 61.8456 41.276C61.796 41.4045 61.7206 41.5216 61.6239 41.6199C61.5287 41.7187 61.4146 41.7976 61.2885 41.8517C61.1623 41.9059 61.0265 41.9343 60.8892 41.9353H54.9292C54.2077 43.9465 53.049 45.773 51.5365 47.2837C50.0239 48.7943 48.1951 49.9515 46.1814 50.6721V59.9232C46.1785 63.3781 46.7564 66.809 47.8912 70.0727C47.9479 70.2282 47.966 70.3951 47.9438 70.5591C47.9217 70.723 47.86 70.8792 47.7641 71.0141C47.6682 71.149 47.5409 71.2587 47.3932 71.3336C47.2455 71.4085 47.0818 71.4465 46.9162 71.4443L46.9436 71.4374ZM45.5291 69.3801C44.6116 66.3117 44.149 63.1256 44.1559 59.9232V49.9315C44.155 49.7107 44.2253 49.4954 44.3564 49.3176C44.4874 49.1397 44.6723 49.0087 44.8837 48.944C46.8526 48.3502 48.6431 47.2774 50.0944 45.8219C51.5457 44.3665 52.6125 42.5738 53.1989 40.6049C53.2637 40.3938 53.3949 40.2092 53.5729 40.0783C53.751 39.9473 53.9665 39.8771 54.1876 39.878H59.8455C59.876 36.9311 60.5583 34.0273 61.8436 31.3744H49.2027C48.9526 34.4193 47.628 37.2765 45.465 39.4368C43.302 41.597 40.4412 42.92 37.3925 43.1697V58.5448C37.3917 62.2004 37.8555 65.8412 38.7726 69.3801H45.5291ZM62.4204 100C62.2782 100.001 62.1375 99.9704 62.0084 99.9108L61.7818 99.808C61.5849 99.7188 61.4207 99.5704 61.3124 99.3835C61.204 99.1966 61.1569 98.9806 61.1776 98.7656C61.1981 98.552 61.2854 98.3503 61.4271 98.189C61.5689 98.0278 61.7578 97.9152 61.9672 97.8672C62.5985 97.7197 63.1609 97.3626 63.5626 96.8544C63.9642 96.3461 64.1812 95.7167 64.1782 95.0693V86.7645C64.179 86.5933 64.222 86.4248 64.3034 86.2741C64.3848 86.1234 64.5022 85.9951 64.6451 85.9004C68.9577 83.0727 72.4979 79.2177 74.9468 74.6828C77.3958 70.1479 78.6763 65.0757 78.6731 59.9232V59.1003C78.6742 58.9549 78.7059 58.8114 78.7663 58.679C78.8266 58.5467 78.9142 58.4285 79.0233 58.3322C79.1307 58.2363 79.2571 58.1641 79.3944 58.1204C79.5316 58.0767 79.6766 58.0624 79.8198 58.0785H79.9022C82.7183 58.0916 85.4965 57.4308 88.0045 56.1515C88.1621 56.0684 88.3387 56.0276 88.5168 56.0331C88.695 56.0385 88.8687 56.0901 89.0209 56.1827C89.1732 56.2753 89.2987 56.4058 89.3854 56.5614C89.472 56.717 89.5167 56.8924 89.5151 57.0704V58.5448C89.5036 67.2659 86.984 75.8001 82.2562 83.1322C77.5283 90.4643 70.7911 96.2858 62.8461 99.904C62.7126 99.9656 62.5675 99.9983 62.4204 100ZM66.2381 87.3337V95.0693C66.2386 95.3311 66.2179 95.5925 66.1763 95.851C72.6377 92.0128 77.9937 86.5687 81.7227 80.049C85.4518 73.5292 87.4267 66.1561 87.4552 58.6477C85.3137 59.5178 83.0364 60.0075 80.7261 60.0947C80.7075 65.4687 79.3786 70.7573 76.8543 75.5033C74.33 80.2493 70.6862 84.3098 66.2381 87.3337Z" fill="url(#paint0_linear_1221_5256)"/>
<path d="M65.2081 87.8137C64.935 87.8137 64.673 87.7054 64.4799 87.5125C64.2867 87.3195 64.1782 87.0579 64.1782 86.7851V74.2971C64.1782 73.9216 64.1041 73.5497 63.9602 73.2028C63.8163 72.8558 63.6054 72.5406 63.3396 72.275C63.0737 72.0095 62.758 71.7988 62.4106 71.6551C62.0633 71.5114 61.6909 71.4374 61.3149 71.4374L46.9436 71.4374C46.7309 71.4378 46.5233 71.372 46.3498 71.2491C46.1763 71.1262 46.0454 70.9523 45.9755 70.7516C44.7604 67.273 44.1429 63.6143 44.149 59.9301V49.9315C44.1486 49.7098 44.2199 49.4939 44.3522 49.3159C44.4846 49.138 44.671 49.0075 44.8837 48.944C46.8526 48.3502 48.6431 47.2774 50.0944 45.8219C51.5457 44.3665 52.6125 42.5738 53.1989 40.6049C53.2637 40.3938 53.3949 40.2092 53.5729 40.0783C53.751 39.9473 53.9665 39.8771 54.1876 39.878H60.8961C61.1604 39.8778 61.4146 39.9798 61.6053 40.1626C61.796 40.3454 61.9085 40.5949 61.9192 40.8587C62.1158 45.4578 64.071 49.8065 67.3821 53.0088C70.6932 56.2111 75.1079 58.0232 79.7168 58.0716C79.9875 58.0753 80.246 58.1852 80.4362 58.3777C80.6264 58.5703 80.733 58.8299 80.733 59.1003V59.9232C80.7408 65.4204 79.3777 70.833 76.7667 75.6724C74.1558 80.5117 70.3793 84.6255 65.7781 87.6423C65.6083 87.7524 65.4106 87.8119 65.2081 87.8137ZM47.6303 69.3801H61.3149C62.6201 69.3819 63.8712 69.9005 64.7941 70.8223C65.717 71.744 66.2363 72.9936 66.2381 74.2971V84.8032C70.0801 81.9277 73.2024 78.202 75.3599 73.9184C77.5175 69.6349 78.6516 64.9102 78.6731 60.1153C73.8922 59.8226 69.3741 57.8307 65.9359 54.5C62.4978 51.1693 60.3666 46.7196 59.9279 41.9559H54.9292C54.2051 43.9633 53.0453 45.7857 51.5329 47.2927C50.0205 48.7996 48.193 49.9537 46.1814 50.6721V59.9232C46.1682 63.1317 46.6571 66.3224 47.6303 69.3801Z" fill="url(#paint1_linear_1221_5256)"/>
<path d="M61.3149 99.9931H24.9232C23.6168 99.9913 22.3646 99.4717 21.4415 98.5485C20.5185 97.6253 20 96.374 20 95.0693V74.2971C20.0018 72.9936 20.5211 71.744 21.444 70.8223C22.3669 69.9005 23.618 69.3819 24.9232 69.3801H61.3149C62.6213 69.3801 63.8742 69.8979 64.7986 70.8198C65.7229 71.7418 66.2431 72.9924 66.245 74.2971V95.0693C66.2502 96.1817 65.8765 97.2629 65.1852 98.1352C64.494 99.0076 63.5263 99.6192 62.441 99.8697C62.0724 99.9586 61.694 100 61.3149 99.9931ZM24.9232 71.4374C24.1638 71.4374 23.4355 71.7387 22.8985 72.275C22.3616 72.8113 22.0599 73.5387 22.0599 74.2971V95.0693C22.0599 95.8283 22.3614 96.5564 22.8981 97.0938C23.4349 97.6312 24.1632 97.934 24.9232 97.9358H61.3149C61.5298 97.939 61.7442 97.916 61.9535 97.8672C62.588 97.7226 63.1544 97.3669 63.5599 96.8585C63.9654 96.3502 64.1858 95.7192 64.1851 95.0693V74.2971C64.1832 73.538 63.8801 72.8107 63.342 72.2746C62.8039 71.7385 62.0749 71.4374 61.3149 71.4374H24.9232Z" fill="url(#paint2_linear_1221_5256)"/>
<path d="M34.0142 89.6105H26.2141C25.5961 89.6087 25.004 89.3622 24.5677 88.9251C24.1314 88.4881 23.8864 87.896 23.8864 87.2788V82.0875C23.8864 81.4709 24.1316 80.8796 24.5681 80.4436C25.0047 80.0077 25.5967 79.7627 26.2141 79.7627H34.0142C34.6316 79.7627 35.2237 80.0077 35.6602 80.4436C36.0967 80.8796 36.3419 81.4709 36.3419 82.0875V87.2788C36.3419 87.896 36.0969 88.4881 35.6606 88.9251C35.2243 89.3622 34.6322 89.6087 34.0142 89.6105ZM26.2141 81.8201C26.1786 81.8191 26.1434 81.8254 26.1105 81.8385C26.0776 81.8516 26.0477 81.8713 26.0226 81.8963C25.9975 81.9213 25.9779 81.9512 25.9647 81.9841C25.9516 82.0169 25.9453 82.0521 25.9463 82.0875V87.2788C25.9454 87.3145 25.9516 87.3501 25.9647 87.3833C25.9777 87.4165 25.9973 87.4468 26.0222 87.4724C26.0472 87.498 26.077 87.5183 26.11 87.5322C26.1429 87.546 26.1783 87.5532 26.2141 87.5532H34.0142C34.05 87.5532 34.0854 87.546 34.1183 87.5322C34.1513 87.5183 34.1811 87.498 34.2061 87.4724C34.231 87.4468 34.2506 87.4165 34.2637 87.3833C34.2767 87.3501 34.283 87.3145 34.282 87.2788V82.0875C34.283 82.0521 34.2767 82.0169 34.2636 81.9841C34.2505 81.9512 34.2308 81.9213 34.2057 81.8963C34.1807 81.8713 34.1508 81.8516 34.1178 81.8385C34.0849 81.8254 34.0497 81.8191 34.0142 81.8201H26.2141ZM59.3649 79.221H51.5647C50.7743 79.221 50.0164 78.9074 49.4575 78.3492C48.8986 77.7911 48.5847 77.0341 48.5847 76.2447C48.5847 75.4554 48.8986 74.6983 49.4575 74.1402C50.0164 73.582 50.7743 73.2684 51.5647 73.2684H59.3649C60.1552 73.2684 60.9132 73.582 61.472 74.1402C62.0309 74.6983 62.3449 75.4554 62.3449 76.2447C62.3449 77.0341 62.0309 77.7911 61.472 78.3492C60.9132 78.9074 60.1552 79.221 59.3649 79.221ZM51.5647 75.3258C51.3207 75.3258 51.0866 75.4226 50.9141 75.5949C50.7415 75.7673 50.6446 76.001 50.6446 76.2447C50.6446 76.4884 50.7415 76.7222 50.9141 76.8945C51.0866 77.0668 51.3207 77.1636 51.5647 77.1636H59.3649C59.6089 77.1636 59.8429 77.0668 60.0155 76.8945C60.188 76.7222 60.285 76.4884 60.285 76.2447C60.285 76.001 60.188 75.7673 60.0155 75.5949C59.8429 75.4226 59.6089 75.3258 59.3649 75.3258H51.5647ZM60.4223 94.3629H25.6579C25.3847 94.3629 25.1228 94.2545 24.9296 94.0616C24.7364 93.8687 24.6279 93.6071 24.6279 93.3342C24.6279 93.0614 24.7364 92.7998 24.9296 92.6069C25.1228 92.414 25.3847 92.3056 25.6579 92.3056H60.4223C60.6954 92.3056 60.9574 92.414 61.1506 92.6069C61.3437 92.7998 61.4522 93.0614 61.4522 93.3342C61.4522 93.6071 61.3437 93.8687 61.1506 94.0616C60.9574 94.2545 60.6954 94.3629 60.4223 94.3629ZM56.1514 85.1666H38.9237C38.6505 85.1666 38.3886 85.0583 38.1954 84.8654C38.0023 84.6725 37.8937 84.4108 37.8937 84.138C37.8937 83.8652 38.0023 83.6035 38.1954 83.4106C38.3886 83.2177 38.6505 83.1093 38.9237 83.1093H56.1514C56.4246 83.1093 56.6865 83.2177 56.8797 83.4106C57.0729 83.6035 57.1814 83.8652 57.1814 84.138C57.1814 84.4108 57.0729 84.6725 56.8797 84.8654C56.6865 85.0583 56.4246 85.1666 56.1514 85.1666ZM79.9022 60.1358H79.6344C74.5023 60.0718 69.5901 58.0452 65.9089 54.4732C62.2278 50.9013 60.0577 46.0557 59.8455 40.9341V40.0769C59.8411 36.5074 60.7908 33.0014 62.5965 29.921C64.4022 26.8406 66.9985 24.2974 70.1173 22.5541C73.236 20.8108 76.7642 19.9306 80.3374 20.0043C83.9106 20.078 87.3994 21.103 90.4434 22.9735C93.4874 24.8439 95.9763 27.492 97.6531 30.6442C99.3299 33.7965 100.134 37.3387 99.9818 40.9049C99.8298 44.4712 98.7274 47.9323 96.7884 50.9309C94.8495 53.9294 92.1442 56.3566 88.952 57.9619C86.1532 59.3997 83.0495 60.1452 79.9022 60.1358ZM79.9022 22.0959C76.7887 22.1089 73.7311 22.9236 71.0249 24.4612C68.3186 25.9988 66.055 28.2075 64.4528 30.8738C62.7826 33.6585 61.902 36.8445 61.9054 40.0906V40.8724C62.104 45.472 64.0621 49.8202 67.3761 53.0203C70.6901 56.2204 75.1073 58.0285 79.7168 58.0716H79.9022C82.7183 58.0847 85.4965 57.4239 88.0045 56.1446C91.6217 54.3226 94.5181 51.3358 96.226 47.6669C97.9338 43.9979 98.3533 39.861 97.4165 35.9245C96.4798 31.9881 94.2416 28.482 91.0636 25.9728C87.8856 23.4635 83.9533 22.0977 79.9022 22.0959Z" fill="url(#paint3_linear_1221_5256)"/>
<path d="M78.2199 46.5506C77.9468 46.5504 77.685 46.4418 77.4921 46.2489L71.2025 39.9672C71.0205 39.7722 70.9215 39.5143 70.9262 39.2478C70.9309 38.9813 71.039 38.727 71.2277 38.5385C71.4164 38.3501 71.671 38.2421 71.9378 38.2374C72.2047 38.2327 72.4629 38.3316 72.6581 38.5133L78.2199 44.0681L91.1767 31.1275C91.3707 30.9347 91.6334 30.8268 91.907 30.8274C92.1806 30.8281 92.4428 30.9372 92.6358 31.1309C92.8289 31.3246 92.937 31.587 92.9363 31.8603C92.9357 32.1336 92.8263 32.3954 92.6324 32.5882L78.9477 46.2489C78.7548 46.4418 78.493 46.5504 78.2199 46.5506ZM51.2557 66.7536C51.0418 66.7554 50.8327 66.6902 50.6578 66.5672C50.4829 66.4442 50.351 66.2696 50.2807 66.0678C49.7303 64.4641 49.2853 62.8261 48.9486 61.1645C48.8731 60.4787 48.7426 53.621 48.9486 53.0792C49.0334 52.8382 49.2049 52.6374 49.4298 52.5157C49.6547 52.3941 49.9168 52.3604 50.1652 52.4211C50.4136 52.4818 50.6305 52.6327 50.7737 52.8444C50.9169 53.056 50.9761 53.3133 50.9398 53.5661C50.8986 54.1902 50.8986 59.8958 51.0154 60.9382C51.3339 62.458 51.749 63.956 52.2582 65.4232C52.2995 65.5537 52.3146 65.6912 52.3024 65.8276C52.2902 65.964 52.251 66.0966 52.1871 66.2178C52.1233 66.339 52.036 66.4463 51.9303 66.5336C51.8247 66.6208 51.7027 66.6863 51.5715 66.7261C51.4683 66.7512 51.3618 66.7604 51.2557 66.7536Z" fill="url(#paint4_linear_1221_5256)"/>
<defs>
<linearGradient id="paint0_linear_1221_5256" x1="0.820512" y1="59.9959" x2="110.667" y2="59.9959" gradientUnits="userSpaceOnUse">
<stop stop-color="#14DFBE"/>
<stop offset="0.513258" stop-color="#1AD6CB"/>
<stop offset="1" stop-color="#2EB8F7"/>
</linearGradient>
<linearGradient id="paint1_linear_1221_5256" x1="0.820512" y1="59.9959" x2="110.667" y2="59.9959" gradientUnits="userSpaceOnUse">
<stop stop-color="#14DFBE"/>
<stop offset="0.513258" stop-color="#1AD6CB"/>
<stop offset="1" stop-color="#2EB8F7"/>
</linearGradient>
<linearGradient id="paint2_linear_1221_5256" x1="0.820512" y1="59.9959" x2="110.667" y2="59.9959" gradientUnits="userSpaceOnUse">
<stop stop-color="#14DFBE"/>
<stop offset="0.513258" stop-color="#1AD6CB"/>
<stop offset="1" stop-color="#2EB8F7"/>
</linearGradient>
<linearGradient id="paint3_linear_1221_5256" x1="0.820512" y1="59.9959" x2="110.667" y2="59.9959" gradientUnits="userSpaceOnUse">
<stop stop-color="#14DFBE"/>
<stop offset="0.513258" stop-color="#1AD6CB"/>
<stop offset="1" stop-color="#2EB8F7"/>
</linearGradient>
<linearGradient id="paint4_linear_1221_5256" x1="0.820512" y1="59.9959" x2="110.667" y2="59.9959" gradientUnits="userSpaceOnUse">
<stop stop-color="#14DFBE"/>
<stop offset="0.513258" stop-color="#1AD6CB"/>
<stop offset="1" stop-color="#2EB8F7"/>
</linearGradient>
</defs>
</svg>
